<svg xmlns="http://www.w3.org/2000/svg" xmlns:xlink="http://www.w3.org/1999/xlink" width="200" zoomAndPan="magnify" viewBox="0 0 150 74.999997" height="100" preserveAspectRatio="xMidYMid meet" version="1.0"><defs><g/></defs><g fill="#66bfbf" fill-opacity="1"><g transform="translate(63.247252, 23.617188)"><g><path d="M 8.046875 -3.671875 C 8.179688 -3.734375 8.316406 -3.78125 8.453125 -3.8125 C 8.585938 -3.84375 8.691406 -3.851562 8.765625 -3.84375 C 8.835938 -3.832031 8.859375 -3.800781 8.828125 -3.75 C 8.804688 -3.695312 8.691406 -3.617188 8.484375 -3.515625 C 8.148438 -3.367188 7.789062 -3.15625 7.40625 -2.875 C 7.03125 -2.601562 6.695312 -2.289062 6.40625 -1.9375 C 6.113281 -1.59375 5.925781 -1.226562 5.84375 -0.84375 C 5.539062 0.84375 5.097656 2.492188 4.515625 4.109375 C 4.253906 4.867188 3.925781 5.601562 3.53125 6.3125 C 3.351562 6.625 3.144531 6.90625 2.90625 7.15625 C 2.757812 7.3125 2.585938 7.40625 2.390625 7.4375 C 2.046875 7.476562 1.785156 7.445312 1.609375 7.34375 C 1.441406 7.238281 1.316406 7.007812 1.234375 6.65625 C 1.160156 6.226562 1.171875 5.800781 1.265625 5.375 C 1.429688 4.4375 1.734375 3.535156 2.171875 2.671875 C 2.515625 1.984375 2.890625 1.316406 3.296875 0.671875 C 3.710938 0.0234375 4.179688 -0.582031 4.703125 -1.15625 C 4.828125 -1.300781 4.914062 -1.453125 4.96875 -1.609375 C 5.03125 -1.773438 5.066406 -1.945312 5.078125 -2.125 C 5.097656 -2.332031 5.117188 -2.546875 5.140625 -2.765625 C 5.253906 -3.671875 5.335938 -4.582031 5.390625 -5.5 C 5.503906 -7.4375 5.46875 -9.375 5.28125 -11.3125 C 5.175781 -12.34375 4.960938 -13.347656 4.640625 -14.328125 C 4.503906 -14.796875 4.296875 -15.222656 4.015625 -15.609375 C 3.929688 -15.710938 3.847656 -15.804688 3.765625 -15.890625 C 3.535156 -16.128906 3.316406 -16.257812 3.109375 -16.28125 C 2.910156 -16.300781 2.6875 -16.21875 2.4375 -16.03125 C 1.582031 -15.40625 1.066406 -14.570312 0.890625 -13.53125 C 0.828125 -13.144531 0.617188 -13.007812 0.265625 -13.125 C 0.109375 -13.1875 0.0234375 -13.300781 0.015625 -13.46875 C 0.00390625 -13.613281 0.015625 -13.757812 0.046875 -13.90625 C 0.296875 -14.8125 0.757812 -15.578125 1.4375 -16.203125 C 1.75 -16.484375 2.085938 -16.664062 2.453125 -16.75 C 2.816406 -16.84375 3.207031 -16.851562 3.625 -16.78125 C 3.851562 -16.738281 4.054688 -16.65625 4.234375 -16.53125 C 4.421875 -16.40625 4.59375 -16.253906 4.75 -16.078125 C 5.132812 -15.628906 5.414062 -15.125 5.59375 -14.5625 C 5.800781 -14 5.957031 -13.425781 6.0625 -12.84375 C 6.175781 -12.269531 6.257812 -11.691406 6.3125 -11.109375 C 6.363281 -10.265625 6.410156 -9.46875 6.453125 -8.71875 C 6.453125 -8.4375 6.460938 -8.164062 6.484375 -7.90625 C 6.460938 -6.269531 6.367188 -4.769531 6.203125 -3.40625 C 6.191406 -3.238281 6.179688 -3.066406 6.171875 -2.890625 C 6.171875 -2.847656 6.175781 -2.8125 6.1875 -2.78125 C 6.195312 -2.75 6.222656 -2.726562 6.265625 -2.71875 C 6.296875 -2.707031 6.320312 -2.707031 6.34375 -2.71875 C 6.363281 -2.726562 6.382812 -2.734375 6.40625 -2.734375 C 6.769531 -2.992188 7.117188 -3.203125 7.453125 -3.359375 C 7.628906 -3.441406 7.828125 -3.546875 8.046875 -3.671875 Z M 4.5 0.90625 C 4.519531 0.820312 4.535156 0.738281 4.546875 0.65625 C 4.546875 0.625 4.550781 0.582031 4.5625 0.53125 C 4.050781 1.164062 3.609375 1.828125 3.234375 2.515625 C 2.867188 3.210938 2.570312 3.945312 2.34375 4.71875 C 2.257812 5 2.191406 5.28125 2.140625 5.5625 C 2.097656 5.84375 2.09375 6.125 2.125 6.40625 C 2.125 6.457031 2.128906 6.5 2.140625 6.53125 C 2.160156 6.5625 2.191406 6.582031 2.234375 6.59375 C 2.316406 6.613281 2.378906 6.585938 2.421875 6.515625 C 2.710938 6.109375 2.953125 5.671875 3.140625 5.203125 C 3.441406 4.503906 3.703125 3.796875 3.921875 3.078125 C 4.140625 2.367188 4.332031 1.644531 4.5 0.90625 Z M 4.5 0.90625 "/></g></g></g><g fill="#66bfbf" fill-opacity="1"><g transform="translate(73.759883, 23.617188)"><g><path d="M 1.453125 -8.625 C 1.648438 -8.664062 1.78125 -8.585938 1.84375 -8.390625 C 1.90625 -8.203125 1.9375 -8.019531 1.9375 -7.84375 C 1.9375 -7.675781 1.90625 -7.53125 1.84375 -7.40625 C 1.78125 -7.28125 1.707031 -7.164062 1.625 -7.0625 C 1.570312 -7 1.515625 -6.960938 1.453125 -6.953125 C 1.390625 -6.953125 1.332031 -6.96875 1.28125 -7 C 1.1875 -7.039062 1.1875 -7.117188 1.28125 -7.234375 C 1.4375 -7.546875 1.441406 -7.789062 1.296875 -7.96875 C 1.148438 -8.144531 1.101562 -8.289062 1.15625 -8.40625 C 1.21875 -8.519531 1.316406 -8.59375 1.453125 -8.625 Z M 1.453125 -8.625 "/></g></g></g><g fill="#66bfbf" fill-opacity="1"><g transform="translate(78.988995, 23.617188)"><g><path d="M 7.25 -2.1875 C 7.25 -2.1875 7.25 -2.191406 7.25 -2.203125 C 7.289062 -2.234375 7.375 -2.304688 7.5 -2.421875 C 7.632812 -2.546875 7.773438 -2.660156 7.921875 -2.765625 C 8.078125 -2.878906 8.1875 -2.9375 8.25 -2.9375 C 8.3125 -2.945312 8.296875 -2.851562 8.203125 -2.65625 C 8.191406 -2.625 8.171875 -2.585938 8.140625 -2.546875 C 8.109375 -2.515625 8.078125 -2.476562 8.046875 -2.4375 C 8.035156 -2.4375 8.023438 -2.429688 8.015625 -2.421875 C 7.410156 -1.765625 6.9375 -1.3125 6.59375 -1.0625 C 6.25 -0.8125 5.910156 -0.691406 5.578125 -0.703125 C 5.234375 -0.742188 5 -0.878906 4.875 -1.109375 C 4.75 -1.347656 4.6875 -1.632812 4.6875 -1.96875 C 4.695312 -2.3125 4.726562 -2.65625 4.78125 -3 C 4.832031 -3.363281 4.851562 -3.671875 4.84375 -3.921875 C 4.832031 -4.171875 4.742188 -4.320312 4.578125 -4.375 C 4.421875 -4.382812 4.257812 -4.253906 4.09375 -3.984375 C 3.9375 -3.722656 3.785156 -3.414062 3.640625 -3.0625 C 3.492188 -2.707031 3.375 -2.394531 3.28125 -2.125 C 3.226562 -1.976562 3.191406 -1.875 3.171875 -1.8125 C 3.097656 -1.675781 2.992188 -1.585938 2.859375 -1.546875 C 2.734375 -1.503906 2.597656 -1.507812 2.453125 -1.5625 C 2.367188 -1.625 2.316406 -1.703125 2.296875 -1.796875 C 2.265625 -2.003906 2.253906 -2.21875 2.265625 -2.4375 C 2.273438 -2.59375 2.273438 -2.738281 2.265625 -2.875 C 2.265625 -2.90625 2.265625 -2.945312 2.265625 -3 C 2.265625 -3.070312 2.265625 -3.140625 2.265625 -3.203125 C 2.265625 -3.273438 2.253906 -3.335938 2.234375 -3.390625 C 2.222656 -3.441406 2.195312 -3.46875 2.15625 -3.46875 C 2.09375 -3.476562 2.007812 -3.398438 1.90625 -3.234375 C 1.8125 -3.066406 1.710938 -2.863281 1.609375 -2.625 C 1.515625 -2.394531 1.429688 -2.179688 1.359375 -1.984375 C 1.285156 -1.816406 1.238281 -1.707031 1.21875 -1.65625 C 1.207031 -1.625 1.191406 -1.59375 1.171875 -1.5625 C 1.085938 -1.414062 1.007812 -1.257812 0.9375 -1.09375 C 0.863281 -0.96875 0.75 -0.894531 0.59375 -0.875 C 0.28125 -0.8125 0.109375 -0.941406 0.078125 -1.265625 C 0.0546875 -2.066406 0.0351562 -2.875 0.015625 -3.6875 C 0.015625 -3.894531 0.144531 -3.96875 0.40625 -3.90625 C 0.664062 -3.84375 0.804688 -3.707031 0.828125 -3.5 C 0.859375 -3.15625 0.898438 -2.984375 0.953125 -2.984375 C 1.003906 -2.984375 1.113281 -3.132812 1.28125 -3.4375 C 1.363281 -3.582031 1.453125 -3.726562 1.546875 -3.875 C 1.660156 -4.070312 1.8125 -4.25 2 -4.40625 C 2.195312 -4.53125 2.390625 -4.566406 2.578125 -4.515625 C 2.765625 -4.460938 2.90625 -4.320312 3 -4.09375 C 3.050781 -4 3.097656 -3.945312 3.140625 -3.9375 C 3.179688 -3.9375 3.222656 -3.957031 3.265625 -4 C 3.304688 -4.050781 3.347656 -4.109375 3.390625 -4.171875 C 3.429688 -4.242188 3.472656 -4.304688 3.515625 -4.359375 C 3.765625 -4.628906 4.054688 -4.816406 4.390625 -4.921875 C 4.722656 -5.023438 5.023438 -5.019531 5.296875 -4.90625 C 5.578125 -4.789062 5.738281 -4.539062 5.78125 -4.15625 C 5.800781 -3.695312 5.769531 -3.234375 5.6875 -2.765625 C 5.65625 -2.535156 5.628906 -2.316406 5.609375 -2.109375 C 5.597656 -1.660156 5.679688 -1.414062 5.859375 -1.375 C 6.035156 -1.332031 6.25 -1.398438 6.5 -1.578125 C 6.757812 -1.765625 7.007812 -1.96875 7.25 -2.1875 Z M 7.25 -2.1875 "/></g></g></g><g fill="#66bfbf" fill-opacity="1"><g transform="translate(75.809751, 37.867187)"><g/></g></g><g fill="#66bfbf" fill-opacity="1"><g transform="translate(11.356631, 52.117186)"><g><path d="M 23.859375 -3.8125 C 23.953125 -3.800781 24.023438 -3.765625 24.078125 -3.703125 C 24.140625 -3.648438 24.164062 -3.597656 24.15625 -3.546875 C 24.132812 -3.460938 24.09375 -3.410156 24.03125 -3.390625 C 23.976562 -3.367188 23.921875 -3.359375 23.859375 -3.359375 C 23.203125 -3.378906 22.539062 -3.359375 21.875 -3.296875 C 21.4375 -3.253906 20.988281 -3.226562 20.53125 -3.21875 C 20.082031 -3.207031 19.640625 -3.175781 19.203125 -3.125 C 19.097656 -3.125 18.992188 -3.117188 18.890625 -3.109375 C 18.671875 -3.109375 18.566406 -2.992188 18.578125 -2.765625 C 18.566406 -2.597656 18.5625 -2.421875 18.5625 -2.234375 C 18.5625 -2.179688 18.5625 -2.132812 18.5625 -2.09375 C 18.5625 -1.25 18.5625 -0.40625 18.5625 0.4375 C 18.5625 2.6875 18.5625 4.941406 18.5625 7.203125 C 18.5625 7.609375 18.539062 8.007812 18.5 8.40625 C 18.476562 8.613281 18.351562 8.71875 18.125 8.71875 C 17.851562 8.726562 17.695312 8.632812 17.65625 8.4375 C 17.613281 8.101562 17.59375 7.773438 17.59375 7.453125 C 17.59375 5.210938 17.59375 2.972656 17.59375 0.734375 C 17.59375 0.0234375 17.59375 -0.679688 17.59375 -1.390625 C 17.59375 -1.492188 17.59375 -1.59375 17.59375 -1.6875 C 17.59375 -2.019531 17.585938 -2.347656 17.578125 -2.671875 C 17.585938 -2.941406 17.46875 -3.0625 17.21875 -3.03125 C 17.019531 -3.007812 16.820312 -2.992188 16.625 -2.984375 C 15.769531 -2.910156 14.914062 -2.828125 14.0625 -2.734375 C 13.289062 -2.640625 12.53125 -2.539062 11.78125 -2.4375 C 11.488281 -2.394531 11.203125 -2.351562 10.921875 -2.3125 C 10.816406 -2.289062 10.722656 -2.273438 10.640625 -2.265625 C 10.554688 -2.242188 10.472656 -2.226562 10.390625 -2.21875 C 10.179688 -2.1875 10.082031 -2.066406 10.09375 -1.859375 C 10.082031 -1.535156 10.078125 -1.210938 10.078125 -0.890625 C 10.078125 -0.410156 10.078125 0.0664062 10.078125 0.546875 C 10.078125 1.273438 10.078125 2.003906 10.078125 2.734375 C 10.078125 3.515625 10.066406 4.300781 10.046875 5.09375 C 10.066406 5.34375 10.054688 5.59375 10.015625 5.84375 C 9.984375 6.070312 9.835938 6.175781 9.578125 6.15625 C 9.316406 6.175781 9.175781 6.070312 9.15625 5.84375 C 9.125 5.53125 9.109375 5.222656 9.109375 4.921875 C 9.109375 3.441406 9.101562 1.957031 9.09375 0.46875 C 9.09375 -0.0078125 9.09375 -0.484375 9.09375 -0.953125 C 9.082031 -1.003906 9.082031 -1.0625 9.09375 -1.125 C 9.09375 -1.21875 9.085938 -1.316406 9.078125 -1.421875 C 9.085938 -1.710938 9.0625 -1.882812 9 -1.9375 C 8.9375 -1.988281 8.765625 -1.984375 8.484375 -1.921875 C 6.546875 -1.628906 4.625 -1.265625 2.71875 -0.828125 C 2.363281 -0.742188 2.019531 -0.648438 1.6875 -0.546875 C 1.351562 -0.441406 1.023438 -0.304688 0.703125 -0.140625 C 0.523438 -0.0351562 0.332031 0.0078125 0.125 0 C 0.0703125 0 0.0195312 -0.015625 -0.03125 -0.046875 C -0.09375 -0.078125 -0.144531 -0.117188 -0.1875 -0.171875 C -0.207031 -0.242188 -0.203125 -0.304688 -0.171875 -0.359375 C -0.140625 -0.410156 -0.0976562 -0.453125 -0.046875 -0.484375 C 0.210938 -0.679688 0.488281 -0.832031 0.78125 -0.9375 C 0.800781 -0.9375 0.816406 -0.941406 0.828125 -0.953125 C 1.535156 -1.210938 2.257812 -1.414062 3 -1.5625 C 4.695312 -1.9375 6.40625 -2.253906 8.125 -2.515625 C 8.363281 -2.554688 8.613281 -2.597656 8.875 -2.640625 C 8.988281 -2.660156 9.046875 -2.726562 9.046875 -2.84375 C 9.066406 -3.070312 9.078125 -3.296875 9.078125 -3.515625 C 9.085938 -4.765625 9.09375 -6.015625 9.09375 -7.265625 C 9.09375 -8.960938 9.09375 -10.664062 9.09375 -12.375 C 9.09375 -13.125 9.101562 -13.878906 9.125 -14.640625 C 9.132812 -15.015625 9.332031 -15.171875 9.71875 -15.109375 C 9.914062 -15.085938 10.023438 -14.976562 10.046875 -14.78125 C 10.066406 -14.601562 10.078125 -14.425781 10.078125 -14.25 C 10.078125 -14.226562 10.078125 -14.203125 10.078125 -14.171875 C 10.078125 -11.484375 10.078125 -8.796875 10.078125 -6.109375 C 10.078125 -5.328125 10.078125 -4.539062 10.078125 -3.75 C 10.078125 -3.707031 10.078125 -3.664062 10.078125 -3.625 C 10.078125 -3.53125 10.078125 -3.445312 10.078125 -3.375 C 10.078125 -3.125 10.101562 -2.972656 10.15625 -2.921875 C 10.21875 -2.867188 10.367188 -2.863281 10.609375 -2.90625 C 10.953125 -2.957031 11.296875 -3.003906 11.640625 -3.046875 C 12.140625 -3.117188 12.644531 -3.179688 13.15625 -3.234375 C 14.082031 -3.335938 15.015625 -3.429688 15.953125 -3.515625 C 16.316406 -3.554688 16.6875 -3.597656 17.0625 -3.640625 C 17.09375 -3.640625 17.132812 -3.640625 17.1875 -3.640625 C 17.238281 -3.640625 17.296875 -3.648438 17.359375 -3.671875 C 17.503906 -3.691406 17.578125 -3.78125 17.578125 -3.9375 C 17.585938 -4.132812 17.59375 -4.332031 17.59375 -4.53125 C 17.59375 -6.050781 17.59375 -7.566406 17.59375 -9.078125 C 17.59375 -9.578125 17.59375 -10.078125 17.59375 -10.578125 C 17.59375 -10.578125 17.597656 -10.578125 17.609375 -10.578125 C 17.609375 -10.953125 17.609375 -11.332031 17.609375 -11.71875 C 17.609375 -13.351562 17.609375 -14.988281 17.609375 -16.625 C 17.609375 -16.695312 17.609375 -16.769531 17.609375 -16.84375 C 17.617188 -16.945312 17.625 -17.050781 17.625 -17.15625 C 17.632812 -17.351562 17.71875 -17.476562 17.875 -17.53125 C 18.039062 -17.59375 18.195312 -17.59375 18.34375 -17.53125 C 18.4375 -17.476562 18.488281 -17.398438 18.5 -17.296875 C 18.519531 -17.085938 18.53125 -16.890625 18.53125 -16.703125 C 18.539062 -13.285156 18.550781 -9.867188 18.5625 -6.453125 C 18.5625 -5.878906 18.5625 -5.3125 18.5625 -4.75 C 18.5625 -4.726562 18.5625 -4.703125 18.5625 -4.671875 C 18.5625 -4.585938 18.5625 -4.515625 18.5625 -4.453125 C 18.5625 -4.203125 18.566406 -4.023438 18.578125 -3.921875 C 18.597656 -3.816406 18.648438 -3.753906 18.734375 -3.734375 C 18.816406 -3.722656 18.945312 -3.722656 19.125 -3.734375 C 19.1875 -3.734375 19.253906 -3.734375 19.328125 -3.734375 C 20.148438 -3.753906 20.972656 -3.769531 21.796875 -3.78125 C 22.273438 -3.800781 22.765625 -3.816406 23.265625 -3.828125 C 23.460938 -3.835938 23.660156 -3.832031 23.859375 -3.8125 Z M 23.859375 -3.8125 "/></g></g></g><g fill="#66bfbf" fill-opacity="1"><g transform="translate(36.282087, 52.117186)"><g><path d="M 3.0625 -2.40625 C 2.945312 -2.15625 2.738281 -1.875 2.4375 -1.5625 C 2.144531 -1.25 1.8125 -1.050781 1.4375 -0.96875 C 1.070312 -0.894531 0.71875 -1.023438 0.375 -1.359375 C 0.25 -1.515625 0.15625 -1.6875 0.09375 -1.875 C 0.03125 -2.070312 0.0078125 -2.265625 0.03125 -2.453125 C 0.03125 -2.503906 0.03125 -2.570312 0.03125 -2.65625 C 0.03125 -2.851562 0.0351562 -3.082031 0.046875 -3.34375 C 0.0664062 -3.613281 0.109375 -3.851562 0.171875 -4.0625 C 0.234375 -4.28125 0.328125 -4.410156 0.453125 -4.453125 C 0.828125 -4.546875 1.03125 -4.414062 1.0625 -4.0625 C 1.0625 -3.945312 1.054688 -3.832031 1.046875 -3.71875 C 1.046875 -3.65625 1.046875 -3.597656 1.046875 -3.546875 C 1.035156 -3.378906 1.023438 -3.21875 1.015625 -3.0625 C 1.015625 -2.925781 1.007812 -2.796875 1 -2.671875 C 0.988281 -2.097656 1.113281 -1.753906 1.375 -1.640625 C 1.644531 -1.535156 1.945312 -1.648438 2.28125 -1.984375 C 2.625 -2.328125 2.847656 -2.609375 2.953125 -2.828125 C 3.054688 -3.054688 3.128906 -3.101562 3.171875 -2.96875 C 3.222656 -2.84375 3.1875 -2.65625 3.0625 -2.40625 Z M 0.984375 -5.671875 C 0.929688 -5.628906 0.867188 -5.601562 0.796875 -5.59375 C 0.722656 -5.582031 0.660156 -5.585938 0.609375 -5.609375 C 0.566406 -5.640625 0.539062 -5.679688 0.53125 -5.734375 C 0.519531 -5.796875 0.515625 -5.867188 0.515625 -5.953125 C 0.515625 -5.960938 0.515625 -5.976562 0.515625 -6 C 0.523438 -6.070312 0.546875 -6.140625 0.578125 -6.203125 C 0.648438 -6.398438 0.8125 -6.488281 1.0625 -6.46875 C 1.15625 -6.457031 1.222656 -6.421875 1.265625 -6.359375 C 1.316406 -6.304688 1.328125 -6.238281 1.296875 -6.15625 C 1.242188 -5.957031 1.140625 -5.796875 0.984375 -5.671875 Z M 0.984375 -5.671875 "/></g></g></g><g fill="#66bfbf" fill-opacity="1"><g transform="translate(40.824873, 52.117186)"><g><path d="M 7.25 -2.1875 C 7.25 -2.1875 7.25 -2.191406 7.25 -2.203125 C 7.289062 -2.234375 7.375 -2.304688 7.5 -2.421875 C 7.632812 -2.546875 7.773438 -2.660156 7.921875 -2.765625 C 8.078125 -2.878906 8.1875 -2.9375 8.25 -2.9375 C 8.3125 -2.945312 8.296875 -2.851562 8.203125 -2.65625 C 8.191406 -2.625 8.171875 -2.585938 8.140625 -2.546875 C 8.109375 -2.515625 8.078125 -2.476562 8.046875 -2.4375 C 8.035156 -2.4375 8.023438 -2.429688 8.015625 -2.421875 C 7.410156 -1.765625 6.9375 -1.3125 6.59375 -1.0625 C 6.25 -0.8125 5.910156 -0.691406 5.578125 -0.703125 C 5.234375 -0.742188 5 -0.878906 4.875 -1.109375 C 4.75 -1.347656 4.6875 -1.632812 4.6875 -1.96875 C 4.695312 -2.3125 4.726562 -2.65625 4.78125 -3 C 4.832031 -3.363281 4.851562 -3.671875 4.84375 -3.921875 C 4.832031 -4.171875 4.742188 -4.320312 4.578125 -4.375 C 4.421875 -4.382812 4.257812 -4.253906 4.09375 -3.984375 C 3.9375 -3.722656 3.785156 -3.414062 3.640625 -3.0625 C 3.492188 -2.707031 3.375 -2.394531 3.28125 -2.125 C 3.226562 -1.976562 3.191406 -1.875 3.171875 -1.8125 C 3.097656 -1.675781 2.992188 -1.585938 2.859375 -1.546875 C 2.734375 -1.503906 2.597656 -1.507812 2.453125 -1.5625 C 2.367188 -1.625 2.316406 -1.703125 2.296875 -1.796875 C 2.265625 -2.003906 2.253906 -2.21875 2.265625 -2.4375 C 2.273438 -2.59375 2.273438 -2.738281 2.265625 -2.875 C 2.265625 -2.90625 2.265625 -2.945312 2.265625 -3 C 2.265625 -3.070312 2.265625 -3.140625 2.265625 -3.203125 C 2.265625 -3.273438 2.253906 -3.335938 2.234375 -3.390625 C 2.222656 -3.441406 2.195312 -3.46875 2.15625 -3.46875 C 2.09375 -3.476562 2.007812 -3.398438 1.90625 -3.234375 C 1.8125 -3.066406 1.710938 -2.863281 1.609375 -2.625 C 1.515625 -2.394531 1.429688 -2.179688 1.359375 -1.984375 C 1.285156 -1.816406 1.238281 -1.707031 1.21875 -1.65625 C 1.207031 -1.625 1.191406 -1.59375 1.171875 -1.5625 C 1.085938 -1.414062 1.007812 -1.257812 0.9375 -1.09375 C 0.863281 -0.96875 0.75 -0.894531 0.59375 -0.875 C 0.28125 -0.8125 0.109375 -0.941406 0.078125 -1.265625 C 0.0546875 -2.066406 0.0351562 -2.875 0.015625 -3.6875 C 0.015625 -3.894531 0.144531 -3.96875 0.40625 -3.90625 C 0.664062 -3.84375 0.804688 -3.707031 0.828125 -3.5 C 0.859375 -3.15625 0.898438 -2.984375 0.953125 -2.984375 C 1.003906 -2.984375 1.113281 -3.132812 1.28125 -3.4375 C 1.363281 -3.582031 1.453125 -3.726562 1.546875 -3.875 C 1.660156 -4.070312 1.8125 -4.25 2 -4.40625 C 2.195312 -4.53125 2.390625 -4.566406 2.578125 -4.515625 C 2.765625 -4.460938 2.90625 -4.320312 3 -4.09375 C 3.050781 -4 3.097656 -3.945312 3.140625 -3.9375 C 3.179688 -3.9375 3.222656 -3.957031 3.265625 -4 C 3.304688 -4.050781 3.347656 -4.109375 3.390625 -4.171875 C 3.429688 -4.242188 3.472656 -4.304688 3.515625 -4.359375 C 3.765625 -4.628906 4.054688 -4.816406 4.390625 -4.921875 C 4.722656 -5.023438 5.023438 -5.019531 5.296875 -4.90625 C 5.578125 -4.789062 5.738281 -4.539062 5.78125 -4.15625 C 5.800781 -3.695312 5.769531 -3.234375 5.6875 -2.765625 C 5.65625 -2.535156 5.628906 -2.316406 5.609375 -2.109375 C 5.597656 -1.660156 5.679688 -1.414062 5.859375 -1.375 C 6.035156 -1.332031 6.25 -1.398438 6.5 -1.578125 C 6.757812 -1.765625 7.007812 -1.96875 7.25 -2.1875 Z M 7.25 -2.1875 "/></g></g></g><g fill="#66bfbf" fill-opacity="1"><g transform="translate(50.219267, 52.117186)"><g><path d="M 6.6875 -3.046875 C 6.582031 -2.710938 6.367188 -2.332031 6.046875 -1.90625 C 5.734375 -1.476562 5.332031 -1.203125 4.84375 -1.078125 C 4.363281 -0.953125 3.945312 -0.96875 3.59375 -1.125 C 3.25 -1.28125 3.054688 -1.695312 3.015625 -2.375 C 2.617188 -1.601562 2.238281 -1.109375 1.875 -0.890625 C 1.519531 -0.671875 1.144531 -0.585938 0.75 -0.640625 C 0.3125 -0.710938 0.015625 -0.882812 -0.140625 -1.15625 C -0.296875 -1.425781 -0.347656 -1.738281 -0.296875 -2.09375 C -0.242188 -2.457031 -0.132812 -2.800781 0.03125 -3.125 C 0.15625 -3.375 0.332031 -3.601562 0.5625 -3.8125 C 0.789062 -4.019531 1.035156 -4.179688 1.296875 -4.296875 C 1.609375 -4.460938 1.921875 -4.539062 2.234375 -4.53125 C 2.546875 -4.519531 2.882812 -4.414062 3.25 -4.21875 C 3.25 -4.207031 3.25 -4.210938 3.25 -4.234375 C 3.25 -4.273438 3.257812 -4.320312 3.28125 -4.375 C 3.300781 -4.425781 3.332031 -4.46875 3.375 -4.5 C 3.488281 -4.582031 3.625 -4.625 3.78125 -4.625 C 3.945312 -4.625 4.078125 -4.546875 4.171875 -4.390625 C 4.179688 -4.179688 4.160156 -3.914062 4.109375 -3.59375 C 3.972656 -2.875 3.96875 -2.359375 4.09375 -2.046875 C 4.226562 -1.742188 4.457031 -1.601562 4.78125 -1.625 C 5.113281 -1.644531 5.539062 -1.96875 6.0625 -2.59375 C 6.59375 -3.226562 6.800781 -3.378906 6.6875 -3.046875 Z M 0.875 -1.375 C 1.050781 -1.238281 1.253906 -1.253906 1.484375 -1.421875 C 1.722656 -1.585938 1.953125 -1.820312 2.171875 -2.125 C 2.390625 -2.4375 2.570312 -2.742188 2.71875 -3.046875 C 2.863281 -3.347656 2.945312 -3.570312 2.96875 -3.71875 C 2.519531 -3.957031 2.140625 -4 1.828125 -3.84375 C 1.515625 -3.6875 1.265625 -3.429688 1.078125 -3.078125 C 0.890625 -2.722656 0.773438 -2.378906 0.734375 -2.046875 C 0.703125 -1.710938 0.75 -1.488281 0.875 -1.375 Z M 0.875 -1.375 "/></g></g></g><g fill="#66bfbf" fill-opacity="1"><g transform="translate(58.128596, 52.117186)"><g><path d="M 4.890625 -2.28125 C 5.203125 -2.757812 5.382812 -3.0625 5.4375 -3.1875 C 5.5 -3.320312 5.546875 -3.316406 5.578125 -3.171875 C 5.609375 -3.035156 5.507812 -2.71875 5.28125 -2.21875 C 5.050781 -1.71875 4.765625 -1.332031 4.421875 -1.0625 C 4.085938 -0.789062 3.769531 -0.691406 3.46875 -0.765625 C 3.175781 -0.835938 2.96875 -1.039062 2.84375 -1.375 C 2.71875 -1.707031 2.679688 -2.132812 2.734375 -2.65625 C 2.734375 -2.664062 2.738281 -2.6875 2.75 -2.71875 C 2.757812 -2.800781 2.773438 -2.925781 2.796875 -3.09375 C 2.816406 -3.269531 2.832031 -3.445312 2.84375 -3.625 C 2.851562 -3.8125 2.84375 -3.960938 2.8125 -4.078125 C 2.789062 -4.191406 2.738281 -4.234375 2.65625 -4.203125 C 2.445312 -4.085938 2.242188 -3.863281 2.046875 -3.53125 C 1.847656 -3.195312 1.664062 -2.847656 1.5 -2.484375 C 1.34375 -2.117188 1.226562 -1.820312 1.15625 -1.59375 C 1.132812 -1.519531 1.109375 -1.445312 1.078125 -1.375 C 1.046875 -1.269531 1.007812 -1.164062 0.96875 -1.0625 C 0.851562 -0.769531 0.648438 -0.65625 0.359375 -0.71875 C 0.203125 -0.757812 0.113281 -0.859375 0.09375 -1.015625 C 0.0820312 -1.140625 0.078125 -1.253906 0.078125 -1.359375 C 0.078125 -1.429688 0.0703125 -1.5 0.0625 -1.5625 C 0.0507812 -2.4375 0.03125 -3.316406 0 -4.203125 C 0.0078125 -4.304688 0.0546875 -4.375 0.140625 -4.40625 C 0.222656 -4.445312 0.320312 -4.46875 0.4375 -4.46875 C 0.519531 -4.46875 0.597656 -4.441406 0.671875 -4.390625 C 0.753906 -4.347656 0.804688 -4.253906 0.828125 -4.109375 C 0.828125 -4.054688 0.828125 -4.003906 0.828125 -3.953125 C 0.835938 -3.921875 0.84375 -3.894531 0.84375 -3.875 C 0.863281 -3.75 0.875 -3.644531 0.875 -3.5625 C 0.875 -3.4375 0.878906 -3.347656 0.890625 -3.296875 C 0.910156 -3.253906 0.945312 -3.253906 1 -3.296875 C 1.0625 -3.347656 1.160156 -3.472656 1.296875 -3.671875 C 1.515625 -4.015625 1.789062 -4.304688 2.125 -4.546875 C 2.425781 -4.765625 2.757812 -4.859375 3.125 -4.828125 C 3.4375 -4.796875 3.644531 -4.628906 3.75 -4.328125 C 3.789062 -4.179688 3.8125 -4.03125 3.8125 -3.875 C 3.8125 -3.726562 3.804688 -3.578125 3.796875 -3.421875 C 3.785156 -3.265625 3.769531 -3.101562 3.75 -2.9375 C 3.738281 -2.882812 3.726562 -2.832031 3.71875 -2.78125 C 3.664062 -2.21875 3.679688 -1.835938 3.765625 -1.640625 C 3.859375 -1.453125 3.992188 -1.390625 4.171875 -1.453125 C 4.347656 -1.523438 4.585938 -1.800781 4.890625 -2.28125 Z M 4.890625 -2.28125 "/></g></g></g><g fill="#66bfbf" fill-opacity="1"><g transform="translate(64.97294, 52.117186)"><g><path d="M 3.59375 -3.234375 C 3.59375 -3.140625 3.398438 -2.976562 3.015625 -2.75 C 2.628906 -2.519531 2.347656 -2.34375 2.171875 -2.21875 C 1.992188 -2.101562 1.90625 -2.035156 1.90625 -2.015625 C 1.9375 -1.929688 1.972656 -1.796875 2.015625 -1.609375 C 2.054688 -1.429688 2.070312 -1.234375 2.0625 -1.015625 C 2.050781 -0.796875 1.976562 -0.597656 1.84375 -0.421875 C 1.71875 -0.253906 1.503906 -0.15625 1.203125 -0.125 C 0.890625 -0.101562 0.613281 -0.148438 0.375 -0.265625 C 0.144531 -0.378906 0 -0.546875 -0.0625 -0.765625 C -0.125 -0.984375 -0.0507812 -1.242188 0.15625 -1.546875 C 0.289062 -1.710938 0.457031 -1.859375 0.65625 -1.984375 C 0.71875 -2.023438 0.785156 -2.070312 0.859375 -2.125 C 0.628906 -2.375 0.40625 -2.628906 0.1875 -2.890625 C -0.0195312 -3.160156 -0.148438 -3.398438 -0.203125 -3.609375 C -0.265625 -3.847656 -0.222656 -4.070312 -0.078125 -4.28125 C 0.0546875 -4.5 0.300781 -4.625 0.65625 -4.65625 C 0.832031 -4.675781 0.992188 -4.664062 1.140625 -4.625 C 1.296875 -4.59375 1.441406 -4.519531 1.578125 -4.40625 C 1.597656 -4.382812 1.613281 -4.351562 1.625 -4.3125 C 1.644531 -4.28125 1.640625 -4.238281 1.609375 -4.1875 C 1.566406 -4.113281 1.503906 -4.078125 1.421875 -4.078125 C 1.359375 -4.078125 1.296875 -4.082031 1.234375 -4.09375 C 1.171875 -4.125 1.113281 -4.148438 1.0625 -4.171875 C 1.03125 -4.191406 1 -4.210938 0.96875 -4.234375 C 0.851562 -4.273438 0.765625 -4.265625 0.703125 -4.203125 C 0.640625 -4.148438 0.609375 -4.066406 0.609375 -3.953125 C 0.617188 -3.753906 0.703125 -3.539062 0.859375 -3.3125 C 1.015625 -3.082031 1.171875 -2.867188 1.328125 -2.671875 C 1.390625 -2.609375 1.441406 -2.546875 1.484375 -2.484375 C 1.523438 -2.441406 1.640625 -2.445312 1.828125 -2.5 C 2.015625 -2.5625 2.351562 -2.722656 2.84375 -2.984375 C 3.34375 -3.242188 3.59375 -3.328125 3.59375 -3.234375 Z M 0.953125 -0.5625 C 1.066406 -0.570312 1.140625 -0.632812 1.171875 -0.75 C 1.203125 -0.875 1.210938 -1.003906 1.203125 -1.140625 C 1.203125 -1.285156 1.195312 -1.394531 1.1875 -1.46875 C 1.164062 -1.507812 1.132812 -1.535156 1.09375 -1.546875 C 1.0625 -1.554688 1.023438 -1.554688 0.984375 -1.546875 C 0.859375 -1.441406 0.765625 -1.3125 0.703125 -1.15625 C 0.640625 -1 0.644531 -0.859375 0.71875 -0.734375 C 0.738281 -0.691406 0.769531 -0.65625 0.8125 -0.625 C 0.851562 -0.59375 0.898438 -0.570312 0.953125 -0.5625 Z M 0.953125 -0.5625 "/></g></g></g><g fill="#66bfbf" fill-opacity="1"><g transform="translate(69.799726, 52.117186)"><g><path d="M 5.796875 -2.875 C 6.140625 -3.25 6.316406 -3.390625 6.328125 -3.296875 C 6.347656 -3.210938 6.273438 -3.007812 6.109375 -2.6875 C 5.953125 -2.375 5.703125 -2.101562 5.359375 -1.875 C 5.109375 -1.726562 4.894531 -1.625 4.71875 -1.5625 C 4.539062 -1.507812 4.378906 -1.484375 4.234375 -1.484375 C 3.941406 -1.460938 3.71875 -1.539062 3.5625 -1.71875 C 3.414062 -1.90625 3.3125 -2.140625 3.25 -2.421875 C 3.195312 -2.710938 3.15625 -3.007812 3.125 -3.3125 C 3.09375 -3.507812 3.066406 -3.6875 3.046875 -3.84375 C 3.015625 -4.082031 2.945312 -4.210938 2.84375 -4.234375 C 2.738281 -4.265625 2.578125 -4.109375 2.359375 -3.765625 C 2.128906 -3.410156 1.929688 -3.007812 1.765625 -2.5625 C 1.597656 -2.125 1.445312 -1.695312 1.3125 -1.28125 C 1.300781 -1.269531 1.296875 -1.25 1.296875 -1.21875 C 1.265625 -1.15625 1.238281 -1.09375 1.21875 -1.03125 C 1.175781 -0.863281 1.117188 -0.695312 1.046875 -0.53125 C 0.984375 -0.382812 0.878906 -0.289062 0.734375 -0.25 C 0.585938 -0.207031 0.4375 -0.21875 0.28125 -0.28125 C 0.175781 -0.320312 0.109375 -0.394531 0.078125 -0.5 C 0.0234375 -0.65625 0.0078125 -0.816406 0.03125 -0.984375 C 0.03125 -1.003906 0.03125 -1.019531 0.03125 -1.03125 C 0.0625 -1.707031 0.0664062 -2.847656 0.046875 -4.453125 C 0.0234375 -5.722656 0.015625 -7.09375 0.015625 -8.5625 C 0.015625 -10.03125 0.0507812 -11.414062 0.125 -12.71875 C 0.195312 -14.019531 0.328125 -15.0625 0.515625 -15.84375 C 0.585938 -16.132812 0.710938 -16.390625 0.890625 -16.609375 C 1.078125 -16.835938 1.28125 -16.960938 1.5 -16.984375 C 1.71875 -17.003906 1.925781 -16.851562 2.125 -16.53125 C 2.257812 -16.257812 2.34375 -15.96875 2.375 -15.65625 C 2.457031 -14.726562 2.375 -13.304688 2.125 -11.390625 C 1.882812 -9.484375 1.632812 -7.8125 1.375 -6.375 C 1.113281 -4.9375 0.984375 -3.734375 0.984375 -2.765625 C 1.066406 -2.910156 1.148438 -3.066406 1.234375 -3.234375 C 1.359375 -3.484375 1.492188 -3.726562 1.640625 -3.96875 C 1.796875 -4.207031 1.976562 -4.410156 2.1875 -4.578125 C 2.394531 -4.753906 2.644531 -4.863281 2.9375 -4.90625 C 3.144531 -4.9375 3.347656 -4.921875 3.546875 -4.859375 C 3.753906 -4.804688 3.894531 -4.664062 3.96875 -4.4375 C 4.0625 -4.039062 4.09375 -3.613281 4.0625 -3.15625 C 4.0625 -2.675781 4.144531 -2.375 4.3125 -2.25 C 4.476562 -2.125 4.679688 -2.101562 4.921875 -2.1875 C 5.171875 -2.269531 5.460938 -2.5 5.796875 -2.875 Z M 1.375 -15.109375 C 1.332031 -14.617188 1.285156 -13.796875 1.234375 -12.640625 C 1.179688 -11.484375 1.132812 -10.328125 1.09375 -9.171875 C 1.050781 -8.015625 1.03125 -7.050781 1.03125 -6.28125 C 1.125 -6.96875 1.238281 -7.867188 1.375 -8.984375 C 1.507812 -10.097656 1.628906 -11.242188 1.734375 -12.421875 C 1.835938 -13.609375 1.890625 -14.5 1.890625 -15.09375 C 1.878906 -15.40625 1.851562 -15.632812 1.8125 -15.78125 C 1.78125 -15.9375 1.722656 -15.992188 1.640625 -15.953125 C 1.554688 -15.910156 1.492188 -15.800781 1.453125 -15.625 C 1.410156 -15.445312 1.382812 -15.273438 1.375 -15.109375 Z M 1.375 -15.109375 "/></g></g></g><g fill="#66bfbf" fill-opacity="1"><g transform="translate(77.442811, 52.117186)"><g><path d="M 6.125 -2.984375 C 6.207031 -2.972656 6.191406 -2.851562 6.078125 -2.625 C 5.960938 -2.394531 5.769531 -2.128906 5.5 -1.828125 C 5.238281 -1.523438 4.941406 -1.265625 4.609375 -1.046875 C 4.273438 -0.828125 3.945312 -0.726562 3.625 -0.75 C 3.375 -0.769531 3.191406 -0.84375 3.078125 -0.96875 C 2.960938 -1.09375 2.882812 -1.226562 2.84375 -1.375 C 2.800781 -1.519531 2.773438 -1.648438 2.765625 -1.765625 C 2.753906 -1.835938 2.742188 -1.894531 2.734375 -1.9375 C 2.722656 -1.976562 2.695312 -1.984375 2.65625 -1.953125 C 2.40625 -1.367188 1.96875 -1.078125 1.34375 -1.078125 C 1 -1.078125 0.71875 -1.226562 0.5 -1.53125 C 0.28125 -1.84375 0.140625 -2.226562 0.078125 -2.6875 C 0.0234375 -3.15625 0.0703125 -3.628906 0.21875 -4.109375 C 0.25 -4.265625 0.347656 -4.375 0.515625 -4.4375 C 0.617188 -4.476562 0.726562 -4.472656 0.84375 -4.421875 C 0.96875 -4.367188 1.035156 -4.289062 1.046875 -4.1875 C 1.046875 -4.082031 1.035156 -3.976562 1.015625 -3.875 C 0.992188 -3.800781 0.984375 -3.726562 0.984375 -3.65625 C 0.960938 -3.375 0.960938 -3.0625 0.984375 -2.71875 C 1.015625 -2.375 1.109375 -2.082031 1.265625 -1.84375 C 1.410156 -1.65625 1.570312 -1.628906 1.75 -1.765625 C 1.9375 -1.910156 2.097656 -2.132812 2.234375 -2.4375 C 2.335938 -2.6875 2.421875 -2.925781 2.484375 -3.15625 C 2.546875 -3.394531 2.585938 -3.582031 2.609375 -3.71875 C 2.617188 -3.769531 2.625 -3.804688 2.625 -3.828125 C 2.65625 -3.929688 2.6875 -4.03125 2.71875 -4.125 C 2.757812 -4.269531 2.800781 -4.410156 2.84375 -4.546875 C 2.914062 -4.816406 3.101562 -4.929688 3.40625 -4.890625 C 3.59375 -4.867188 3.695312 -4.78125 3.71875 -4.625 C 3.726562 -4.394531 3.726562 -4.164062 3.71875 -3.9375 C 3.71875 -3.707031 3.707031 -3.476562 3.6875 -3.25 C 3.664062 -2.925781 3.648438 -2.601562 3.640625 -2.28125 C 3.640625 -1.800781 3.734375 -1.523438 3.921875 -1.453125 C 4.117188 -1.378906 4.359375 -1.429688 4.640625 -1.609375 C 4.921875 -1.785156 5.191406 -2.023438 5.453125 -2.328125 C 5.484375 -2.359375 5.515625 -2.394531 5.546875 -2.4375 C 5.597656 -2.5 5.660156 -2.570312 5.734375 -2.65625 C 5.804688 -2.738281 5.878906 -2.8125 5.953125 -2.875 C 6.023438 -2.9375 6.082031 -2.972656 6.125 -2.984375 Z M 6.125 -2.984375 "/></g></g></g><g fill="#66bfbf" fill-opacity="1"><g transform="translate(84.849232, 52.117186)"><g/></g></g><g fill="#66bfbf" fill-opacity="1"><g transform="translate(89.492603, 52.117186)"><g><path d="M 13.9375 -1.296875 C 13.75 -0.691406 13.535156 -0.109375 13.296875 0.453125 C 13.066406 1.023438 12.800781 1.578125 12.5 2.109375 C 11.53125 3.734375 10.550781 4.972656 9.5625 5.828125 C 8.582031 6.679688 7.648438 7.222656 6.765625 7.453125 C 5.890625 7.691406 5.125 7.6875 4.46875 7.4375 C 3.820312 7.1875 3.335938 6.769531 3.015625 6.1875 C 2.691406 5.613281 2.597656 4.945312 2.734375 4.1875 C 2.867188 3.4375 3.289062 2.664062 4 1.875 C 4.707031 1.09375 5.75 0.367188 7.125 -0.296875 C 8.507812 -0.960938 10.296875 -1.492188 12.484375 -1.890625 C 12.703125 -1.953125 12.859375 -2.050781 12.953125 -2.1875 C 13.054688 -2.320312 13.128906 -2.488281 13.171875 -2.6875 C 13.648438 -4.519531 14.019531 -6.390625 14.28125 -8.296875 C 14.488281 -9.835938 14.632812 -11.398438 14.71875 -12.984375 C 14.726562 -13.128906 14.722656 -13.210938 14.703125 -13.234375 C 14.679688 -13.265625 14.65625 -13.253906 14.625 -13.203125 C 14.601562 -13.148438 14.578125 -13.078125 14.546875 -12.984375 C 14.515625 -12.898438 14.484375 -12.820312 14.453125 -12.75 C 14.242188 -12.039062 13.953125 -11.265625 13.578125 -10.421875 C 13.203125 -9.578125 12.765625 -8.738281 12.265625 -7.90625 C 11.773438 -7.070312 11.234375 -6.316406 10.640625 -5.640625 C 10.046875 -4.972656 9.429688 -4.460938 8.796875 -4.109375 C 7.929688 -3.648438 7.09375 -3.4375 6.28125 -3.46875 C 5.46875 -3.5 4.710938 -3.734375 4.015625 -4.171875 C 3.316406 -4.609375 2.707031 -5.191406 2.1875 -5.921875 C 1.664062 -6.648438 1.265625 -7.476562 0.984375 -8.40625 C 0.492188 -10.050781 0.195312 -11.710938 0.09375 -13.390625 C 0.03125 -14.128906 0.00390625 -14.859375 0.015625 -15.578125 C 0.0234375 -16.304688 0.078125 -17.03125 0.171875 -17.75 C 0.253906 -18.4375 0.410156 -19.09375 0.640625 -19.71875 C 0.679688 -19.84375 0.75 -19.941406 0.84375 -20.015625 C 0.9375 -20.097656 1.0625 -20.140625 1.21875 -20.140625 C 1.363281 -20.128906 1.472656 -20.085938 1.546875 -20.015625 C 1.628906 -19.941406 1.648438 -19.835938 1.609375 -19.703125 C 1.367188 -18.867188 1.207031 -18.015625 1.125 -17.140625 C 0.957031 -15.398438 1.015625 -13.628906 1.296875 -11.828125 C 1.367188 -11.285156 1.457031 -10.734375 1.5625 -10.171875 C 1.675781 -9.617188 1.820312 -9.070312 2 -8.53125 C 2.195312 -7.90625 2.460938 -7.289062 2.796875 -6.6875 C 3.128906 -6.09375 3.523438 -5.570312 3.984375 -5.125 C 4.453125 -4.6875 4.976562 -4.382812 5.5625 -4.21875 C 6.144531 -4.050781 6.785156 -4.085938 7.484375 -4.328125 C 8.160156 -4.597656 8.796875 -5.039062 9.390625 -5.65625 C 9.992188 -6.269531 10.546875 -6.992188 11.046875 -7.828125 C 11.554688 -8.671875 12.003906 -9.550781 12.390625 -10.46875 C 12.785156 -11.394531 13.117188 -12.285156 13.390625 -13.140625 C 13.660156 -14.003906 13.863281 -14.765625 14 -15.421875 C 14.132812 -16.054688 14.265625 -16.6875 14.390625 -17.3125 C 14.492188 -17.769531 14.59375 -18.226562 14.6875 -18.6875 C 14.71875 -18.820312 14.769531 -18.929688 14.84375 -19.015625 C 14.925781 -19.109375 15.046875 -19.160156 15.203125 -19.171875 C 15.472656 -19.179688 15.660156 -19.128906 15.765625 -19.015625 C 15.867188 -18.910156 15.925781 -18.753906 15.9375 -18.546875 C 16 -17.765625 16.019531 -16.992188 16 -16.234375 C 15.945312 -14.734375 15.863281 -13.234375 15.75 -11.734375 C 15.644531 -10.242188 15.484375 -8.765625 15.265625 -7.296875 C 15.046875 -5.929688 14.78125 -4.582031 14.46875 -3.25 C 14.300781 -2.5625 14.125 -1.910156 13.9375 -1.296875 Z M 12.578125 -0.78125 C 12.609375 -0.84375 12.625 -0.910156 12.625 -0.984375 C 12.625 -1.035156 12.609375 -1.070312 12.578125 -1.09375 C 12.546875 -1.113281 12.507812 -1.117188 12.46875 -1.109375 C 12.375 -1.109375 12.253906 -1.09375 12.109375 -1.0625 C 11.960938 -1.039062 11.820312 -1.015625 11.6875 -0.984375 C 11.582031 -0.960938 11.5 -0.945312 11.4375 -0.9375 C 10.28125 -0.695312 9.160156 -0.304688 8.078125 0.234375 C 7.003906 0.773438 6.070312 1.394531 5.28125 2.09375 C 4.5 2.800781 3.976562 3.503906 3.71875 4.203125 C 3.488281 4.859375 3.484375 5.363281 3.703125 5.71875 C 3.921875 6.070312 4.296875 6.273438 4.828125 6.328125 C 5.367188 6.378906 5.992188 6.273438 6.703125 6.015625 C 7.410156 5.753906 8.132812 5.328125 8.875 4.734375 C 9.625 4.148438 10.320312 3.398438 10.96875 2.484375 C 11.625 1.566406 12.160156 0.476562 12.578125 -0.78125 Z M 12.578125 -0.78125 "/></g></g></g><g fill="#66bfbf" fill-opacity="1"><g transform="translate(107.566645, 52.117186)"><g><path d="M 6.6875 -3.046875 C 6.582031 -2.710938 6.367188 -2.332031 6.046875 -1.90625 C 5.734375 -1.476562 5.332031 -1.203125 4.84375 -1.078125 C 4.363281 -0.953125 3.945312 -0.96875 3.59375 -1.125 C 3.25 -1.28125 3.054688 -1.695312 3.015625 -2.375 C 2.617188 -1.601562 2.238281 -1.109375 1.875 -0.890625 C 1.519531 -0.671875 1.144531 -0.585938 0.75 -0.640625 C 0.3125 -0.710938 0.015625 -0.882812 -0.140625 -1.15625 C -0.296875 -1.425781 -0.347656 -1.738281 -0.296875 -2.09375 C -0.242188 -2.457031 -0.132812 -2.800781 0.03125 -3.125 C 0.15625 -3.375 0.332031 -3.601562 0.5625 -3.8125 C 0.789062 -4.019531 1.035156 -4.179688 1.296875 -4.296875 C 1.609375 -4.460938 1.921875 -4.539062 2.234375 -4.53125 C 2.546875 -4.519531 2.882812 -4.414062 3.25 -4.21875 C 3.25 -4.207031 3.25 -4.210938 3.25 -4.234375 C 3.25 -4.273438 3.257812 -4.320312 3.28125 -4.375 C 3.300781 -4.425781 3.332031 -4.46875 3.375 -4.5 C 3.488281 -4.582031 3.625 -4.625 3.78125 -4.625 C 3.945312 -4.625 4.078125 -4.546875 4.171875 -4.390625 C 4.179688 -4.179688 4.160156 -3.914062 4.109375 -3.59375 C 3.972656 -2.875 3.96875 -2.359375 4.09375 -2.046875 C 4.226562 -1.742188 4.457031 -1.601562 4.78125 -1.625 C 5.113281 -1.644531 5.539062 -1.96875 6.0625 -2.59375 C 6.59375 -3.226562 6.800781 -3.378906 6.6875 -3.046875 Z M 0.875 -1.375 C 1.050781 -1.238281 1.253906 -1.253906 1.484375 -1.421875 C 1.722656 -1.585938 1.953125 -1.820312 2.171875 -2.125 C 2.390625 -2.4375 2.570312 -2.742188 2.71875 -3.046875 C 2.863281 -3.347656 2.945312 -3.570312 2.96875 -3.71875 C 2.519531 -3.957031 2.140625 -4 1.828125 -3.84375 C 1.515625 -3.6875 1.265625 -3.429688 1.078125 -3.078125 C 0.890625 -2.722656 0.773438 -2.378906 0.734375 -2.046875 C 0.703125 -1.710938 0.75 -1.488281 0.875 -1.375 Z M 0.875 -1.375 "/></g></g></g><g fill="#66bfbf" fill-opacity="1"><g transform="translate(115.475976, 52.117186)"><g><path d="M 9.296875 -2.890625 C 9.328125 -2.953125 9.378906 -2.984375 9.453125 -2.984375 C 9.523438 -2.992188 9.585938 -2.953125 9.640625 -2.859375 C 9.660156 -2.835938 9.640625 -2.769531 9.578125 -2.65625 C 9.523438 -2.550781 9.453125 -2.429688 9.359375 -2.296875 C 9.265625 -2.160156 9.171875 -2.035156 9.078125 -1.921875 C 8.992188 -1.804688 8.929688 -1.734375 8.890625 -1.703125 C 8.503906 -1.265625 8.113281 -0.941406 7.71875 -0.734375 C 7.320312 -0.535156 6.894531 -0.492188 6.4375 -0.609375 C 5.976562 -0.722656 5.460938 -1.050781 4.890625 -1.59375 C 4.796875 -1.6875 4.707031 -1.78125 4.625 -1.875 C 4.601562 -1.90625 4.582031 -1.929688 4.5625 -1.953125 C 4.46875 -2.066406 4.363281 -2.082031 4.25 -2 C 4.125 -1.914062 4.003906 -1.828125 3.890625 -1.734375 C 3.773438 -1.660156 3.664062 -1.585938 3.5625 -1.515625 C 3.1875 -1.265625 2.796875 -1.050781 2.390625 -0.875 C 1.960938 -0.6875 1.507812 -0.613281 1.03125 -0.65625 C 0.28125 -0.738281 -0.101562 -1.148438 -0.125 -1.890625 C -0.132812 -2.410156 -0.0234375 -2.875 0.203125 -3.28125 C 0.429688 -3.695312 0.75 -4.003906 1.15625 -4.203125 C 1.570312 -4.398438 2.050781 -4.441406 2.59375 -4.328125 C 2.65625 -4.304688 2.734375 -4.285156 2.828125 -4.265625 C 2.890625 -4.242188 2.960938 -4.226562 3.046875 -4.21875 C 2.992188 -4.34375 2.945312 -4.453125 2.90625 -4.546875 C 2.820312 -4.703125 2.753906 -4.84375 2.703125 -4.96875 C 2.335938 -5.707031 2.039062 -6.550781 1.8125 -7.5 C 1.59375 -8.445312 1.484375 -9.421875 1.484375 -10.421875 C 1.492188 -11.421875 1.660156 -12.347656 1.984375 -13.203125 C 2.316406 -14.066406 2.867188 -14.78125 3.640625 -15.34375 C 4.117188 -15.664062 4.617188 -15.84375 5.140625 -15.875 C 5.660156 -15.90625 6.148438 -15.789062 6.609375 -15.53125 C 7.066406 -15.28125 7.4375 -14.90625 7.71875 -14.40625 C 8.09375 -13.707031 8.320312 -12.972656 8.40625 -12.203125 C 8.570312 -10.960938 8.546875 -9.800781 8.328125 -8.71875 C 8.117188 -7.644531 7.75 -6.628906 7.21875 -5.671875 C 6.695312 -4.710938 6.023438 -3.78125 5.203125 -2.875 C 5.128906 -2.78125 5.085938 -2.707031 5.078125 -2.65625 C 5.078125 -2.613281 5.117188 -2.539062 5.203125 -2.4375 C 5.367188 -2.226562 5.546875 -2.019531 5.734375 -1.8125 C 5.929688 -1.601562 6.148438 -1.429688 6.390625 -1.296875 C 6.734375 -1.148438 7.097656 -1.144531 7.484375 -1.28125 C 7.867188 -1.425781 8.222656 -1.648438 8.546875 -1.953125 C 8.878906 -2.253906 9.128906 -2.566406 9.296875 -2.890625 Z M 3.484375 -2.375 C 3.585938 -2.457031 3.59375 -2.554688 3.5 -2.671875 C 3.445312 -2.734375 3.394531 -2.796875 3.34375 -2.859375 C 3.207031 -3.035156 3.046875 -3.210938 2.859375 -3.390625 C 2.679688 -3.578125 2.492188 -3.71875 2.296875 -3.8125 C 2.097656 -3.90625 1.898438 -3.914062 1.703125 -3.84375 C 1.429688 -3.707031 1.207031 -3.472656 1.03125 -3.140625 C 0.851562 -2.816406 0.742188 -2.476562 0.703125 -2.125 C 0.671875 -1.78125 0.738281 -1.515625 0.90625 -1.328125 C 1.070312 -1.148438 1.359375 -1.132812 1.765625 -1.28125 C 2.390625 -1.5625 2.960938 -1.925781 3.484375 -2.375 Z M 4.796875 -3.65625 C 5.628906 -4.632812 6.25 -5.597656 6.65625 -6.546875 C 7.070312 -7.503906 7.351562 -8.617188 7.5 -9.890625 C 7.539062 -10.203125 7.554688 -10.609375 7.546875 -11.109375 C 7.546875 -11.617188 7.503906 -12.148438 7.421875 -12.703125 C 7.335938 -13.253906 7.179688 -13.753906 6.953125 -14.203125 C 6.734375 -14.660156 6.421875 -14.988281 6.015625 -15.1875 C 5.609375 -15.382812 5.085938 -15.382812 4.453125 -15.1875 C 3.765625 -14.769531 3.25 -14.222656 2.90625 -13.546875 C 2.570312 -12.878906 2.378906 -12.132812 2.328125 -11.3125 C 2.285156 -10.488281 2.34375 -9.644531 2.5 -8.78125 C 2.65625 -7.925781 2.867188 -7.113281 3.140625 -6.34375 C 3.421875 -5.570312 3.722656 -4.898438 4.046875 -4.328125 C 4.085938 -4.253906 4.125 -4.179688 4.15625 -4.109375 C 4.25 -3.878906 4.390625 -3.664062 4.578125 -3.46875 C 4.597656 -3.5 4.625 -3.523438 4.65625 -3.546875 C 4.707031 -3.578125 4.753906 -3.613281 4.796875 -3.65625 Z M 4.796875 -3.65625 "/></g></g></g><g fill="#66bfbf" fill-opacity="1"><g transform="translate(126.343605, 52.117186)"><g><path d="M 6.6875 -3.046875 C 6.582031 -2.710938 6.367188 -2.332031 6.046875 -1.90625 C 5.734375 -1.476562 5.332031 -1.203125 4.84375 -1.078125 C 4.363281 -0.953125 3.945312 -0.96875 3.59375 -1.125 C 3.25 -1.28125 3.054688 -1.695312 3.015625 -2.375 C 2.617188 -1.601562 2.238281 -1.109375 1.875 -0.890625 C 1.519531 -0.671875 1.144531 -0.585938 0.75 -0.640625 C 0.3125 -0.710938 0.015625 -0.882812 -0.140625 -1.15625 C -0.296875 -1.425781 -0.347656 -1.738281 -0.296875 -2.09375 C -0.242188 -2.457031 -0.132812 -2.800781 0.03125 -3.125 C 0.15625 -3.375 0.332031 -3.601562 0.5625 -3.8125 C 0.789062 -4.019531 1.035156 -4.179688 1.296875 -4.296875 C 1.609375 -4.460938 1.921875 -4.539062 2.234375 -4.53125 C 2.546875 -4.519531 2.882812 -4.414062 3.25 -4.21875 C 3.25 -4.207031 3.25 -4.210938 3.25 -4.234375 C 3.25 -4.273438 3.257812 -4.320312 3.28125 -4.375 C 3.300781 -4.425781 3.332031 -4.46875 3.375 -4.5 C 3.488281 -4.582031 3.625 -4.625 3.78125 -4.625 C 3.945312 -4.625 4.078125 -4.546875 4.171875 -4.390625 C 4.179688 -4.179688 4.160156 -3.914062 4.109375 -3.59375 C 3.972656 -2.875 3.96875 -2.359375 4.09375 -2.046875 C 4.226562 -1.742188 4.457031 -1.601562 4.78125 -1.625 C 5.113281 -1.644531 5.539062 -1.96875 6.0625 -2.59375 C 6.59375 -3.226562 6.800781 -3.378906 6.6875 -3.046875 Z M 0.875 -1.375 C 1.050781 -1.238281 1.253906 -1.253906 1.484375 -1.421875 C 1.722656 -1.585938 1.953125 -1.820312 2.171875 -2.125 C 2.390625 -2.4375 2.570312 -2.742188 2.71875 -3.046875 C 2.863281 -3.347656 2.945312 -3.570312 2.96875 -3.71875 C 2.519531 -3.957031 2.140625 -4 1.828125 -3.84375 C 1.515625 -3.6875 1.265625 -3.429688 1.078125 -3.078125 C 0.890625 -2.722656 0.773438 -2.378906 0.734375 -2.046875 C 0.703125 -1.710938 0.75 -1.488281 0.875 -1.375 Z M 0.875 -1.375 "/></g></g></g><g fill="#66bfbf" fill-opacity="1"><g transform="translate(134.252937, 52.117186)"><g><path d="M 4.375 -3.09375 C 4.664062 -3.175781 4.78125 -3.171875 4.71875 -3.078125 C 4.664062 -2.992188 4.476562 -2.910156 4.15625 -2.828125 C 3.914062 -2.765625 3.703125 -2.734375 3.515625 -2.734375 C 3.335938 -2.734375 3.175781 -2.789062 3.03125 -2.90625 C 3 -2.78125 2.96875 -2.660156 2.9375 -2.546875 C 2.863281 -2.316406 2.789062 -2.09375 2.71875 -1.875 C 2.632812 -1.570312 2.507812 -1.289062 2.34375 -1.03125 C 2.207031 -0.800781 2.023438 -0.644531 1.796875 -0.5625 C 1.566406 -0.488281 1.34375 -0.492188 1.125 -0.578125 C 0.914062 -0.660156 0.738281 -0.828125 0.59375 -1.078125 C 0.425781 -1.441406 0.3125 -1.820312 0.25 -2.21875 C 0.113281 -2.8125 0.0351562 -3.410156 0.015625 -4.015625 C 0.00390625 -4.160156 0.0078125 -4.296875 0.03125 -4.421875 C 0.0507812 -4.597656 0.15625 -4.6875 0.34375 -4.6875 C 0.488281 -4.675781 0.578125 -4.585938 0.609375 -4.421875 C 0.640625 -4.265625 0.65625 -4.101562 0.65625 -3.9375 C 0.65625 -3.875 0.65625 -3.820312 0.65625 -3.78125 C 0.65625 -3.71875 0.675781 -3.519531 0.71875 -3.1875 C 0.757812 -2.851562 0.816406 -2.5 0.890625 -2.125 C 0.972656 -1.75 1.070312 -1.457031 1.1875 -1.25 C 1.300781 -1.050781 1.4375 -1.054688 1.59375 -1.265625 C 1.738281 -1.492188 1.84375 -1.738281 1.90625 -2 C 2.050781 -2.519531 2.191406 -3.039062 2.328125 -3.5625 C 2.367188 -3.8125 2.460938 -4.035156 2.609375 -4.234375 C 2.773438 -4.421875 2.984375 -4.46875 3.234375 -4.375 C 3.296875 -4.351562 3.34375 -4.320312 3.375 -4.28125 C 3.40625 -4.238281 3.414062 -4.191406 3.40625 -4.140625 C 3.394531 -4.078125 3.382812 -4.007812 3.375 -3.9375 C 3.332031 -3.8125 3.300781 -3.679688 3.28125 -3.546875 C 3.257812 -3.421875 3.265625 -3.320312 3.296875 -3.25 C 3.359375 -3.164062 3.5 -3.101562 3.71875 -3.0625 C 3.945312 -3.03125 4.164062 -3.039062 4.375 -3.09375 Z M 4.375 -3.09375 "/></g></g></g><g fill="#66bfbf" fill-opacity="1"><g transform="translate(61.726308, 70.28128)"><g><path d="M 2.625 -1.1875 C 2.582031 -1.0625 2.5 -0.914062 2.375 -0.75 C 2.25 -0.582031 2.09375 -0.472656 1.90625 -0.421875 C 1.71875 -0.367188 1.550781 -0.375 1.40625 -0.4375 C 1.269531 -0.5 1.195312 -0.664062 1.1875 -0.9375 C 1.03125 -0.632812 0.878906 -0.4375 0.734375 -0.34375 C 0.597656 -0.257812 0.453125 -0.226562 0.296875 -0.25 C 0.117188 -0.28125 0 -0.347656 -0.0625 -0.453125 C -0.125 -0.554688 -0.144531 -0.675781 -0.125 -0.8125 C -0.101562 -0.957031 -0.0546875 -1.097656 0.015625 -1.234375 C 0.0664062 -1.328125 0.132812 -1.414062 0.21875 -1.5 C 0.3125 -1.582031 0.40625 -1.644531 0.5 -1.6875 C 0.625 -1.75 0.75 -1.78125 0.875 -1.78125 C 1 -1.78125 1.132812 -1.738281 1.28125 -1.65625 C 1.28125 -1.65625 1.28125 -1.660156 1.28125 -1.671875 C 1.28125 -1.679688 1.28125 -1.695312 1.28125 -1.71875 C 1.289062 -1.738281 1.304688 -1.753906 1.328125 -1.765625 C 1.367188 -1.796875 1.421875 -1.8125 1.484375 -1.8125 C 1.554688 -1.8125 1.609375 -1.78125 1.640625 -1.71875 C 1.640625 -1.632812 1.628906 -1.53125 1.609375 -1.40625 C 1.554688 -1.125 1.554688 -0.921875 1.609375 -0.796875 C 1.660156 -0.679688 1.75 -0.628906 1.875 -0.640625 C 2.007812 -0.648438 2.179688 -0.773438 2.390625 -1.015625 C 2.597656 -1.265625 2.675781 -1.320312 2.625 -1.1875 Z M 0.34375 -0.546875 C 0.414062 -0.492188 0.492188 -0.5 0.578125 -0.5625 C 0.671875 -0.625 0.757812 -0.710938 0.84375 -0.828125 C 0.9375 -0.953125 1.007812 -1.070312 1.0625 -1.1875 C 1.125 -1.3125 1.160156 -1.40625 1.171875 -1.46875 C 0.992188 -1.550781 0.84375 -1.5625 0.71875 -1.5 C 0.59375 -1.445312 0.492188 -1.347656 0.421875 -1.203125 C 0.347656 -1.066406 0.300781 -0.929688 0.28125 -0.796875 C 0.269531 -0.671875 0.289062 -0.585938 0.34375 -0.546875 Z M 0.34375 -0.546875 "/></g></g><g transform="translate(64.192246, 70.28128)"><g/></g><g transform="translate(65.374035, 70.28128)"><g><path d="M 9.046875 -6.609375 C 9.273438 -6.421875 9.457031 -6.207031 9.59375 -5.96875 C 9.738281 -5.738281 9.835938 -5.476562 9.890625 -5.1875 C 9.910156 -5.03125 9.910156 -4.878906 9.890625 -4.734375 C 9.878906 -4.585938 9.859375 -4.441406 9.828125 -4.296875 C 9.765625 -4.054688 9.675781 -3.828125 9.5625 -3.609375 C 9.457031 -3.398438 9.332031 -3.203125 9.1875 -3.015625 C 8.976562 -2.753906 8.753906 -2.523438 8.515625 -2.328125 C 8.273438 -2.128906 8.015625 -1.953125 7.734375 -1.796875 C 7.148438 -1.453125 6.535156 -1.175781 5.890625 -0.96875 C 5.847656 -0.945312 5.804688 -0.925781 5.765625 -0.90625 C 5.691406 -0.882812 5.640625 -0.863281 5.609375 -0.84375 C 5.585938 -0.832031 5.570312 -0.8125 5.5625 -0.78125 C 5.5625 -0.75 5.5625 -0.703125 5.5625 -0.640625 C 5.5625 0.160156 5.554688 0.96875 5.546875 1.78125 C 5.546875 1.882812 5.546875 1.988281 5.546875 2.09375 C 5.546875 2.09375 5.546875 2.097656 5.546875 2.109375 C 5.546875 2.160156 5.546875 2.210938 5.546875 2.265625 C 5.546875 2.328125 5.539062 2.382812 5.53125 2.4375 C 5.5 2.53125 5.441406 2.578125 5.359375 2.578125 C 5.273438 2.578125 5.222656 2.535156 5.203125 2.453125 C 5.171875 2.335938 5.15625 2.210938 5.15625 2.078125 C 5.15625 1.953125 5.15625 1.832031 5.15625 1.71875 C 5.15625 1.019531 5.15625 0.328125 5.15625 -0.359375 C 5.15625 -0.378906 5.15625 -0.40625 5.15625 -0.4375 C 5.164062 -0.519531 5.160156 -0.609375 5.140625 -0.703125 C 5.085938 -0.691406 5.039062 -0.679688 5 -0.671875 C 4.945312 -0.660156 4.890625 -0.65625 4.828125 -0.65625 C 4.804688 -0.664062 4.785156 -0.671875 4.765625 -0.671875 C 4.753906 -0.679688 4.742188 -0.703125 4.734375 -0.734375 C 4.734375 -0.773438 4.753906 -0.804688 4.796875 -0.828125 C 4.878906 -0.859375 4.960938 -0.882812 5.046875 -0.90625 C 5.128906 -0.9375 5.164062 -0.988281 5.15625 -1.0625 C 5.15625 -1.113281 5.15625 -1.164062 5.15625 -1.21875 C 5.15625 -1.238281 5.15625 -1.265625 5.15625 -1.296875 C 5.15625 -1.710938 5.15625 -2.125 5.15625 -2.53125 C 5.164062 -3.445312 5.171875 -4.363281 5.171875 -5.28125 C 5.171875 -5.289062 5.171875 -5.304688 5.171875 -5.328125 C 5.171875 -5.390625 5.171875 -5.453125 5.171875 -5.515625 C 5.179688 -5.640625 5.242188 -5.703125 5.359375 -5.703125 C 5.472656 -5.703125 5.535156 -5.640625 5.546875 -5.515625 C 5.554688 -5.453125 5.554688 -5.394531 5.546875 -5.34375 C 5.546875 -5.320312 5.546875 -5.300781 5.546875 -5.28125 C 5.546875 -5 5.546875 -4.710938 5.546875 -4.421875 C 5.554688 -3.429688 5.5625 -2.441406 5.5625 -1.453125 C 5.5625 -1.421875 5.5625 -1.394531 5.5625 -1.375 C 5.550781 -1.289062 5.554688 -1.207031 5.578125 -1.125 C 5.597656 -1.113281 5.617188 -1.109375 5.640625 -1.109375 C 5.660156 -1.109375 5.675781 -1.113281 5.6875 -1.125 C 6.164062 -1.300781 6.625 -1.507812 7.0625 -1.75 C 7.5 -2 7.910156 -2.289062 8.296875 -2.625 C 8.796875 -3.0625 9.144531 -3.59375 9.34375 -4.21875 C 9.445312 -4.570312 9.476562 -4.894531 9.4375 -5.1875 C 9.394531 -5.488281 9.289062 -5.757812 9.125 -6 C 8.957031 -6.238281 8.75 -6.441406 8.5 -6.609375 C 8.0625 -6.890625 7.539062 -7.0625 6.9375 -7.125 C 6.332031 -7.195312 5.695312 -7.175781 5.03125 -7.0625 C 4.375 -6.957031 3.738281 -6.773438 3.125 -6.515625 C 2.507812 -6.265625 1.96875 -5.960938 1.5 -5.609375 C 1.039062 -5.253906 0.707031 -4.875 0.5 -4.46875 C 0.457031 -4.382812 0.425781 -4.296875 0.40625 -4.203125 C 0.382812 -4.117188 0.382812 -4.023438 0.40625 -3.921875 C 0.425781 -3.867188 0.421875 -3.828125 0.390625 -3.796875 C 0.359375 -3.773438 0.316406 -3.765625 0.265625 -3.765625 C 0.148438 -3.785156 0.0703125 -3.84375 0.03125 -3.9375 C 0 -4.03125 -0.00390625 -4.117188 0.015625 -4.203125 C 0.0546875 -4.378906 0.125 -4.539062 0.21875 -4.6875 C 0.550781 -5.175781 1.007812 -5.601562 1.59375 -5.96875 C 2.1875 -6.34375 2.84375 -6.648438 3.5625 -6.890625 C 4.28125 -7.128906 4.992188 -7.285156 5.703125 -7.359375 C 6.421875 -7.429688 7.070312 -7.398438 7.65625 -7.265625 C 7.914062 -7.210938 8.160156 -7.128906 8.390625 -7.015625 C 8.617188 -6.910156 8.835938 -6.773438 9.046875 -6.609375 Z M 9.046875 -6.609375 "/></g></g><g transform="translate(74.023426, 70.28128)"><g><path d="M 1.484375 -1.109375 C 1.515625 -1.171875 1.535156 -1.195312 1.546875 -1.1875 C 1.554688 -1.1875 1.554688 -1.164062 1.546875 -1.125 C 1.546875 -1.082031 1.539062 -1.03125 1.53125 -0.96875 C 1.507812 -0.882812 1.472656 -0.785156 1.421875 -0.671875 C 1.367188 -0.566406 1.3125 -0.46875 1.25 -0.375 C 1.164062 -0.25 1.054688 -0.148438 0.921875 -0.078125 C 0.785156 -0.015625 0.660156 0 0.546875 -0.03125 C 0.441406 -0.0703125 0.382812 -0.175781 0.375 -0.34375 C 0.375 -0.488281 0.382812 -0.644531 0.40625 -0.8125 C 0.414062 -0.882812 0.425781 -0.953125 0.4375 -1.015625 C 0.4375 -1.046875 0.429688 -1.066406 0.421875 -1.078125 C 0.410156 -1.085938 0.394531 -1.09375 0.375 -1.09375 C 0.351562 -1.09375 0.335938 -1.09375 0.328125 -1.09375 C 0.242188 -1.082031 0.15625 -1.082031 0.0625 -1.09375 C -0.0390625 -1.125 -0.0976562 -1.175781 -0.109375 -1.25 C -0.128906 -1.320312 -0.128906 -1.421875 -0.109375 -1.546875 C -0.0976562 -1.628906 -0.0664062 -1.691406 -0.015625 -1.734375 C 0.0351562 -1.773438 0.0976562 -1.796875 0.171875 -1.796875 C 0.265625 -1.785156 0.3125 -1.742188 0.3125 -1.671875 C 0.3125 -1.609375 0.289062 -1.539062 0.25 -1.46875 C 0.21875 -1.394531 0.203125 -1.335938 0.203125 -1.296875 C 0.203125 -1.253906 0.238281 -1.238281 0.3125 -1.25 C 0.332031 -1.257812 0.351562 -1.265625 0.375 -1.265625 C 0.40625 -1.285156 0.4375 -1.296875 0.46875 -1.296875 C 0.5 -1.304688 0.546875 -1.3125 0.609375 -1.3125 C 0.671875 -1.300781 0.710938 -1.265625 0.734375 -1.203125 C 0.765625 -1.148438 0.773438 -1.078125 0.765625 -0.984375 C 0.765625 -0.898438 0.757812 -0.8125 0.75 -0.71875 C 0.726562 -0.601562 0.71875 -0.503906 0.71875 -0.421875 C 0.71875 -0.335938 0.742188 -0.285156 0.796875 -0.265625 C 0.859375 -0.253906 0.953125 -0.3125 1.078125 -0.4375 C 1.203125 -0.570312 1.335938 -0.796875 1.484375 -1.109375 Z M 1.484375 -1.109375 "/></g></g><g transform="translate(75.447156, 70.28128)"><g><path d="M 1.78125 -1.265625 C 1.8125 -1.296875 1.828125 -1.269531 1.828125 -1.1875 C 1.828125 -1.101562 1.753906 -0.988281 1.609375 -0.84375 C 1.460938 -0.707031 1.3125 -0.644531 1.15625 -0.65625 C 1.113281 -0.65625 1.082031 -0.648438 1.0625 -0.640625 C 1.039062 -0.628906 1.019531 -0.609375 1 -0.578125 C 0.988281 -0.554688 0.96875 -0.53125 0.9375 -0.5 C 0.84375 -0.394531 0.726562 -0.328125 0.59375 -0.296875 C 0.46875 -0.265625 0.347656 -0.273438 0.234375 -0.328125 C 0.117188 -0.378906 0.0351562 -0.476562 -0.015625 -0.625 C -0.0546875 -0.757812 -0.0625 -0.894531 -0.03125 -1.03125 C 0 -1.144531 0.0390625 -1.253906 0.09375 -1.359375 C 0.164062 -1.492188 0.257812 -1.585938 0.375 -1.640625 C 0.488281 -1.703125 0.617188 -1.734375 0.765625 -1.734375 C 0.972656 -1.742188 1.109375 -1.644531 1.171875 -1.4375 C 1.203125 -1.3125 1.207031 -1.1875 1.1875 -1.0625 C 1.1875 -1.03125 1.179688 -1 1.171875 -0.96875 C 1.171875 -0.945312 1.164062 -0.929688 1.15625 -0.921875 C 1.15625 -0.847656 1.1875 -0.816406 1.25 -0.828125 C 1.425781 -0.859375 1.601562 -1.003906 1.78125 -1.265625 Z M 0.515625 -0.484375 C 0.628906 -0.535156 0.707031 -0.617188 0.75 -0.734375 C 0.570312 -0.859375 0.453125 -1.03125 0.390625 -1.25 C 0.328125 -1.144531 0.289062 -1.019531 0.28125 -0.875 C 0.269531 -0.738281 0.28125 -0.625 0.3125 -0.53125 C 0.351562 -0.445312 0.421875 -0.429688 0.515625 -0.484375 Z M 0.828125 -0.984375 C 0.859375 -1.023438 0.875 -1.078125 0.875 -1.140625 C 0.882812 -1.203125 0.882812 -1.265625 0.875 -1.328125 C 0.863281 -1.390625 0.847656 -1.4375 0.828125 -1.46875 C 0.804688 -1.507812 0.785156 -1.523438 0.765625 -1.515625 C 0.722656 -1.472656 0.695312 -1.414062 0.6875 -1.34375 C 0.6875 -1.28125 0.695312 -1.210938 0.71875 -1.140625 C 0.75 -1.066406 0.785156 -1.015625 0.828125 -0.984375 Z M 0.828125 -0.984375 "/></g></g><g transform="translate(77.180291, 70.28128)"><g><path d="M 2.53125 -1.171875 C 2.5625 -1.179688 2.585938 -1.1875 2.609375 -1.1875 C 2.628906 -1.1875 2.640625 -1.175781 2.640625 -1.15625 C 2.640625 -1.144531 2.617188 -1.125 2.578125 -1.09375 C 2.566406 -1.082031 2.550781 -1.070312 2.53125 -1.0625 C 2.445312 -1 2.347656 -0.929688 2.234375 -0.859375 C 2.117188 -0.785156 2.015625 -0.710938 1.921875 -0.640625 C 1.828125 -0.578125 1.765625 -0.53125 1.734375 -0.5 C 1.703125 -0.445312 1.679688 -0.390625 1.671875 -0.328125 C 1.660156 -0.273438 1.65625 -0.21875 1.65625 -0.15625 C 1.644531 -0.101562 1.640625 -0.0507812 1.640625 0 C 1.546875 0.550781 1.394531 1.019531 1.1875 1.40625 C 0.976562 1.789062 0.738281 2.097656 0.46875 2.328125 C 0.207031 2.554688 -0.046875 2.707031 -0.296875 2.78125 C -0.546875 2.851562 -0.753906 2.84375 -0.921875 2.75 C -1.097656 2.664062 -1.203125 2.5 -1.234375 2.25 C -1.253906 2.050781 -1.210938 1.84375 -1.109375 1.625 C -1.015625 1.414062 -0.882812 1.210938 -0.71875 1.015625 C -0.550781 0.828125 -0.375 0.65625 -0.1875 0.5 C 0 0.34375 0.171875 0.207031 0.328125 0.09375 C 0.367188 0.0625 0.410156 0.03125 0.453125 0 C 0.679688 -0.144531 0.910156 -0.289062 1.140625 -0.4375 C 1.285156 -0.519531 1.351562 -0.640625 1.34375 -0.796875 C 1.34375 -0.816406 1.34375 -0.84375 1.34375 -0.875 C 1.332031 -0.914062 1.328125 -0.960938 1.328125 -1.015625 C 1.242188 -0.867188 1.117188 -0.738281 0.953125 -0.625 C 0.796875 -0.519531 0.632812 -0.441406 0.46875 -0.390625 C 0.300781 -0.335938 0.15625 -0.335938 0.03125 -0.390625 C -0.0820312 -0.453125 -0.144531 -0.582031 -0.15625 -0.78125 C -0.144531 -0.882812 -0.113281 -0.976562 -0.0625 -1.0625 C 0.0625 -1.289062 0.242188 -1.46875 0.484375 -1.59375 C 0.566406 -1.644531 0.664062 -1.679688 0.78125 -1.703125 C 0.90625 -1.722656 1.023438 -1.71875 1.140625 -1.6875 C 1.253906 -1.664062 1.34375 -1.613281 1.40625 -1.53125 C 1.425781 -1.5625 1.453125 -1.578125 1.484375 -1.578125 C 1.515625 -1.585938 1.546875 -1.59375 1.578125 -1.59375 C 1.578125 -1.59375 1.582031 -1.59375 1.59375 -1.59375 C 1.71875 -1.601562 1.773438 -1.546875 1.765625 -1.421875 C 1.765625 -1.328125 1.757812 -1.234375 1.75 -1.140625 C 1.75 -1.078125 1.75 -1.007812 1.75 -0.9375 C 1.75 -0.863281 1.789062 -0.835938 1.875 -0.859375 C 1.957031 -0.890625 2.054688 -0.9375 2.171875 -1 C 2.304688 -1.082031 2.425781 -1.140625 2.53125 -1.171875 Z M 1.03125 -1.046875 C 1.175781 -1.191406 1.253906 -1.300781 1.265625 -1.375 C 1.234375 -1.4375 1.179688 -1.472656 1.109375 -1.484375 C 1.035156 -1.503906 0.960938 -1.503906 0.890625 -1.484375 C 0.816406 -1.472656 0.753906 -1.453125 0.703125 -1.421875 C 0.554688 -1.335938 0.453125 -1.226562 0.390625 -1.09375 C 0.328125 -0.96875 0.300781 -0.859375 0.3125 -0.765625 C 0.332031 -0.679688 0.398438 -0.648438 0.515625 -0.671875 C 0.628906 -0.703125 0.800781 -0.828125 1.03125 -1.046875 Z M 1.234375 -0.03125 C 1.234375 -0.03125 1.234375 -0.0351562 1.234375 -0.046875 C 1.234375 -0.0546875 1.234375 -0.078125 1.234375 -0.109375 C 1.242188 -0.140625 1.242188 -0.164062 1.234375 -0.1875 C 1.234375 -0.207031 1.222656 -0.210938 1.203125 -0.203125 C 1.054688 -0.0976562 0.90625 0.0078125 0.75 0.125 C 0.65625 0.195312 0.566406 0.257812 0.484375 0.3125 C 0.367188 0.394531 0.234375 0.503906 0.078125 0.640625 C -0.0664062 0.785156 -0.210938 0.941406 -0.359375 1.109375 C -0.503906 1.273438 -0.625 1.445312 -0.71875 1.625 C -0.820312 1.800781 -0.875 1.972656 -0.875 2.140625 C -0.863281 2.367188 -0.796875 2.503906 -0.671875 2.546875 C -0.554688 2.597656 -0.40625 2.570312 -0.21875 2.46875 C -0.0390625 2.363281 0.140625 2.191406 0.328125 1.953125 C 0.523438 1.722656 0.703125 1.4375 0.859375 1.09375 C 1.023438 0.757812 1.148438 0.382812 1.234375 -0.03125 Z M 1.234375 -0.03125 "/></g></g><g transform="translate(79.643902, 70.28128)"><g><path d="M 1.484375 -1.109375 C 1.515625 -1.171875 1.535156 -1.195312 1.546875 -1.1875 C 1.554688 -1.1875 1.554688 -1.164062 1.546875 -1.125 C 1.546875 -1.082031 1.539062 -1.03125 1.53125 -0.96875 C 1.507812 -0.882812 1.472656 -0.785156 1.421875 -0.671875 C 1.367188 -0.566406 1.3125 -0.46875 1.25 -0.375 C 1.164062 -0.25 1.054688 -0.148438 0.921875 -0.078125 C 0.785156 -0.015625 0.660156 0 0.546875 -0.03125 C 0.441406 -0.0703125 0.382812 -0.175781 0.375 -0.34375 C 0.375 -0.488281 0.382812 -0.644531 0.40625 -0.8125 C 0.414062 -0.882812 0.425781 -0.953125 0.4375 -1.015625 C 0.4375 -1.046875 0.429688 -1.066406 0.421875 -1.078125 C 0.410156 -1.085938 0.394531 -1.09375 0.375 -1.09375 C 0.351562 -1.09375 0.335938 -1.09375 0.328125 -1.09375 C 0.242188 -1.082031 0.15625 -1.082031 0.0625 -1.09375 C -0.0390625 -1.125 -0.0976562 -1.175781 -0.109375 -1.25 C -0.128906 -1.320312 -0.128906 -1.421875 -0.109375 -1.546875 C -0.0976562 -1.628906 -0.0664062 -1.691406 -0.015625 -1.734375 C 0.0351562 -1.773438 0.0976562 -1.796875 0.171875 -1.796875 C 0.265625 -1.785156 0.3125 -1.742188 0.3125 -1.671875 C 0.3125 -1.609375 0.289062 -1.539062 0.25 -1.46875 C 0.21875 -1.394531 0.203125 -1.335938 0.203125 -1.296875 C 0.203125 -1.253906 0.238281 -1.238281 0.3125 -1.25 C 0.332031 -1.257812 0.351562 -1.265625 0.375 -1.265625 C 0.40625 -1.285156 0.4375 -1.296875 0.46875 -1.296875 C 0.5 -1.304688 0.546875 -1.3125 0.609375 -1.3125 C 0.671875 -1.300781 0.710938 -1.265625 0.734375 -1.203125 C 0.765625 -1.148438 0.773438 -1.078125 0.765625 -0.984375 C 0.765625 -0.898438 0.757812 -0.8125 0.75 -0.71875 C 0.726562 -0.601562 0.71875 -0.503906 0.71875 -0.421875 C 0.71875 -0.335938 0.742188 -0.285156 0.796875 -0.265625 C 0.859375 -0.253906 0.953125 -0.3125 1.078125 -0.4375 C 1.203125 -0.570312 1.335938 -0.796875 1.484375 -1.109375 Z M 1.484375 -1.109375 "/></g></g><g transform="translate(81.067632, 70.28128)"><g><path d="M 2.625 -1.1875 C 2.582031 -1.0625 2.5 -0.914062 2.375 -0.75 C 2.25 -0.582031 2.09375 -0.472656 1.90625 -0.421875 C 1.71875 -0.367188 1.550781 -0.375 1.40625 -0.4375 C 1.269531 -0.5 1.195312 -0.664062 1.1875 -0.9375 C 1.03125 -0.632812 0.878906 -0.4375 0.734375 -0.34375 C 0.597656 -0.257812 0.453125 -0.226562 0.296875 -0.25 C 0.117188 -0.28125 0 -0.347656 -0.0625 -0.453125 C -0.125 -0.554688 -0.144531 -0.675781 -0.125 -0.8125 C -0.101562 -0.957031 -0.0546875 -1.097656 0.015625 -1.234375 C 0.0664062 -1.328125 0.132812 -1.414062 0.21875 -1.5 C 0.3125 -1.582031 0.40625 -1.644531 0.5 -1.6875 C 0.625 -1.75 0.75 -1.78125 0.875 -1.78125 C 1 -1.78125 1.132812 -1.738281 1.28125 -1.65625 C 1.28125 -1.65625 1.28125 -1.660156 1.28125 -1.671875 C 1.28125 -1.679688 1.28125 -1.695312 1.28125 -1.71875 C 1.289062 -1.738281 1.304688 -1.753906 1.328125 -1.765625 C 1.367188 -1.796875 1.421875 -1.8125 1.484375 -1.8125 C 1.554688 -1.8125 1.609375 -1.78125 1.640625 -1.71875 C 1.640625 -1.632812 1.628906 -1.53125 1.609375 -1.40625 C 1.554688 -1.125 1.554688 -0.921875 1.609375 -0.796875 C 1.660156 -0.679688 1.75 -0.628906 1.875 -0.640625 C 2.007812 -0.648438 2.179688 -0.773438 2.390625 -1.015625 C 2.597656 -1.265625 2.675781 -1.320312 2.625 -1.1875 Z M 0.34375 -0.546875 C 0.414062 -0.492188 0.492188 -0.5 0.578125 -0.5625 C 0.671875 -0.625 0.757812 -0.710938 0.84375 -0.828125 C 0.9375 -0.953125 1.007812 -1.070312 1.0625 -1.1875 C 1.125 -1.3125 1.160156 -1.40625 1.171875 -1.46875 C 0.992188 -1.550781 0.84375 -1.5625 0.71875 -1.5 C 0.59375 -1.445312 0.492188 -1.347656 0.421875 -1.203125 C 0.347656 -1.066406 0.300781 -0.929688 0.28125 -0.796875 C 0.269531 -0.671875 0.289062 -0.585938 0.34375 -0.546875 Z M 0.34375 -0.546875 "/></g></g><g transform="translate(83.533569, 70.28128)"><g><path d="M 2.84375 -0.859375 C 2.863281 -0.878906 2.898438 -0.910156 2.953125 -0.953125 C 3.003906 -1.003906 3.054688 -1.050781 3.109375 -1.09375 C 3.171875 -1.132812 3.210938 -1.15625 3.234375 -1.15625 C 3.265625 -1.15625 3.257812 -1.117188 3.21875 -1.046875 C 3.21875 -1.035156 3.207031 -1.019531 3.1875 -1 C 3.175781 -0.988281 3.171875 -0.976562 3.171875 -0.96875 C 3.160156 -0.957031 3.15625 -0.953125 3.15625 -0.953125 C 2.914062 -0.691406 2.726562 -0.507812 2.59375 -0.40625 C 2.457031 -0.3125 2.320312 -0.269531 2.1875 -0.28125 C 2.050781 -0.289062 1.957031 -0.34375 1.90625 -0.4375 C 1.863281 -0.53125 1.84375 -0.640625 1.84375 -0.765625 C 1.84375 -0.898438 1.851562 -1.039062 1.875 -1.1875 C 1.894531 -1.320312 1.90625 -1.4375 1.90625 -1.53125 C 1.90625 -1.632812 1.867188 -1.695312 1.796875 -1.71875 C 1.734375 -1.71875 1.671875 -1.664062 1.609375 -1.5625 C 1.546875 -1.457031 1.484375 -1.335938 1.421875 -1.203125 C 1.367188 -1.066406 1.328125 -0.945312 1.296875 -0.84375 C 1.273438 -0.78125 1.257812 -0.738281 1.25 -0.71875 C 1.21875 -0.664062 1.175781 -0.628906 1.125 -0.609375 C 1.070312 -0.585938 1.019531 -0.585938 0.96875 -0.609375 C 0.925781 -0.640625 0.90625 -0.671875 0.90625 -0.703125 C 0.894531 -0.785156 0.890625 -0.875 0.890625 -0.96875 C 0.890625 -1.019531 0.890625 -1.070312 0.890625 -1.125 C 0.890625 -1.144531 0.890625 -1.164062 0.890625 -1.1875 C 0.890625 -1.207031 0.890625 -1.226562 0.890625 -1.25 C 0.890625 -1.28125 0.882812 -1.304688 0.875 -1.328125 C 0.875 -1.347656 0.863281 -1.359375 0.84375 -1.359375 C 0.820312 -1.367188 0.789062 -1.335938 0.75 -1.265625 C 0.71875 -1.203125 0.679688 -1.125 0.640625 -1.03125 C 0.597656 -0.9375 0.5625 -0.851562 0.53125 -0.78125 C 0.5 -0.71875 0.484375 -0.675781 0.484375 -0.65625 C 0.472656 -0.644531 0.460938 -0.628906 0.453125 -0.609375 C 0.429688 -0.554688 0.40625 -0.5 0.375 -0.4375 C 0.34375 -0.382812 0.296875 -0.351562 0.234375 -0.34375 C 0.109375 -0.320312 0.0390625 -0.375 0.03125 -0.5 C 0.0195312 -0.8125 0.0078125 -1.128906 0 -1.453125 C 0 -1.535156 0.0507812 -1.5625 0.15625 -1.53125 C 0.257812 -1.507812 0.316406 -1.457031 0.328125 -1.375 C 0.335938 -1.238281 0.351562 -1.171875 0.375 -1.171875 C 0.394531 -1.171875 0.4375 -1.226562 0.5 -1.34375 C 0.53125 -1.40625 0.566406 -1.46875 0.609375 -1.53125 C 0.648438 -1.601562 0.707031 -1.671875 0.78125 -1.734375 C 0.863281 -1.785156 0.941406 -1.800781 1.015625 -1.78125 C 1.085938 -1.757812 1.144531 -1.703125 1.1875 -1.609375 C 1.195312 -1.566406 1.210938 -1.546875 1.234375 -1.546875 C 1.253906 -1.546875 1.269531 -1.550781 1.28125 -1.5625 C 1.300781 -1.582031 1.316406 -1.609375 1.328125 -1.640625 C 1.347656 -1.671875 1.363281 -1.695312 1.375 -1.71875 C 1.476562 -1.820312 1.59375 -1.894531 1.71875 -1.9375 C 1.851562 -1.976562 1.972656 -1.972656 2.078125 -1.921875 C 2.191406 -1.878906 2.257812 -1.785156 2.28125 -1.640625 C 2.28125 -1.453125 2.265625 -1.265625 2.234375 -1.078125 C 2.222656 -0.992188 2.210938 -0.910156 2.203125 -0.828125 C 2.203125 -0.648438 2.234375 -0.550781 2.296875 -0.53125 C 2.367188 -0.519531 2.453125 -0.550781 2.546875 -0.625 C 2.648438 -0.695312 2.75 -0.773438 2.84375 -0.859375 Z M 2.84375 -0.859375 "/></g></g><g transform="translate(86.583422, 70.28128)"><g><path d="M 2.84375 -0.859375 C 2.863281 -0.878906 2.898438 -0.910156 2.953125 -0.953125 C 3.003906 -1.003906 3.054688 -1.050781 3.109375 -1.09375 C 3.171875 -1.132812 3.210938 -1.15625 3.234375 -1.15625 C 3.265625 -1.15625 3.257812 -1.117188 3.21875 -1.046875 C 3.21875 -1.035156 3.207031 -1.019531 3.1875 -1 C 3.175781 -0.988281 3.171875 -0.976562 3.171875 -0.96875 C 3.160156 -0.957031 3.15625 -0.953125 3.15625 -0.953125 C 2.914062 -0.691406 2.726562 -0.507812 2.59375 -0.40625 C 2.457031 -0.3125 2.320312 -0.269531 2.1875 -0.28125 C 2.050781 -0.289062 1.957031 -0.34375 1.90625 -0.4375 C 1.863281 -0.53125 1.84375 -0.640625 1.84375 -0.765625 C 1.84375 -0.898438 1.851562 -1.039062 1.875 -1.1875 C 1.894531 -1.320312 1.90625 -1.4375 1.90625 -1.53125 C 1.90625 -1.632812 1.867188 -1.695312 1.796875 -1.71875 C 1.734375 -1.71875 1.671875 -1.664062 1.609375 -1.5625 C 1.546875 -1.457031 1.484375 -1.335938 1.421875 -1.203125 C 1.367188 -1.066406 1.328125 -0.945312 1.296875 -0.84375 C 1.273438 -0.78125 1.257812 -0.738281 1.25 -0.71875 C 1.21875 -0.664062 1.175781 -0.628906 1.125 -0.609375 C 1.070312 -0.585938 1.019531 -0.585938 0.96875 -0.609375 C 0.925781 -0.640625 0.90625 -0.671875 0.90625 -0.703125 C 0.894531 -0.785156 0.890625 -0.875 0.890625 -0.96875 C 0.890625 -1.019531 0.890625 -1.070312 0.890625 -1.125 C 0.890625 -1.144531 0.890625 -1.164062 0.890625 -1.1875 C 0.890625 -1.207031 0.890625 -1.226562 0.890625 -1.25 C 0.890625 -1.28125 0.882812 -1.304688 0.875 -1.328125 C 0.875 -1.347656 0.863281 -1.359375 0.84375 -1.359375 C 0.820312 -1.367188 0.789062 -1.335938 0.75 -1.265625 C 0.71875 -1.203125 0.679688 -1.125 0.640625 -1.03125 C 0.597656 -0.9375 0.5625 -0.851562 0.53125 -0.78125 C 0.5 -0.71875 0.484375 -0.675781 0.484375 -0.65625 C 0.472656 -0.644531 0.460938 -0.628906 0.453125 -0.609375 C 0.429688 -0.554688 0.40625 -0.5 0.375 -0.4375 C 0.34375 -0.382812 0.296875 -0.351562 0.234375 -0.34375 C 0.109375 -0.320312 0.0390625 -0.375 0.03125 -0.5 C 0.0195312 -0.8125 0.0078125 -1.128906 0 -1.453125 C 0 -1.535156 0.0507812 -1.5625 0.15625 -1.53125 C 0.257812 -1.507812 0.316406 -1.457031 0.328125 -1.375 C 0.335938 -1.238281 0.351562 -1.171875 0.375 -1.171875 C 0.394531 -1.171875 0.4375 -1.226562 0.5 -1.34375 C 0.53125 -1.40625 0.566406 -1.46875 0.609375 -1.53125 C 0.648438 -1.601562 0.707031 -1.671875 0.78125 -1.734375 C 0.863281 -1.785156 0.941406 -1.800781 1.015625 -1.78125 C 1.085938 -1.757812 1.144531 -1.703125 1.1875 -1.609375 C 1.195312 -1.566406 1.210938 -1.546875 1.234375 -1.546875 C 1.253906 -1.546875 1.269531 -1.550781 1.28125 -1.5625 C 1.300781 -1.582031 1.316406 -1.609375 1.328125 -1.640625 C 1.347656 -1.671875 1.363281 -1.695312 1.375 -1.71875 C 1.476562 -1.820312 1.59375 -1.894531 1.71875 -1.9375 C 1.851562 -1.976562 1.972656 -1.972656 2.078125 -1.921875 C 2.191406 -1.878906 2.257812 -1.785156 2.28125 -1.640625 C 2.28125 -1.453125 2.265625 -1.265625 2.234375 -1.078125 C 2.222656 -0.992188 2.210938 -0.910156 2.203125 -0.828125 C 2.203125 -0.648438 2.234375 -0.550781 2.296875 -0.53125 C 2.367188 -0.519531 2.453125 -0.550781 2.546875 -0.625 C 2.648438 -0.695312 2.75 -0.773438 2.84375 -0.859375 Z M 2.84375 -0.859375 "/></g></g><g transform="translate(89.633275, 70.28128)"><g><path d="M 2.25 -1.125 C 2.28125 -1.144531 2.3125 -1.160156 2.34375 -1.171875 C 2.375 -1.179688 2.394531 -1.179688 2.40625 -1.171875 C 2.414062 -1.160156 2.398438 -1.128906 2.359375 -1.078125 C 2.242188 -0.953125 2.101562 -0.832031 1.9375 -0.71875 C 1.78125 -0.601562 1.617188 -0.507812 1.453125 -0.4375 C 1.316406 -0.375 1.175781 -0.320312 1.03125 -0.28125 C 0.882812 -0.25 0.738281 -0.242188 0.59375 -0.265625 C 0.445312 -0.285156 0.3125 -0.351562 0.1875 -0.46875 C 0.0078125 -0.632812 -0.0625 -0.835938 -0.03125 -1.078125 C -0.0078125 -1.265625 0.0625 -1.425781 0.1875 -1.5625 C 0.3125 -1.695312 0.46875 -1.789062 0.65625 -1.84375 C 0.8125 -1.875 0.96875 -1.878906 1.125 -1.859375 C 1.195312 -1.847656 1.265625 -1.820312 1.328125 -1.78125 C 1.378906 -1.738281 1.40625 -1.6875 1.40625 -1.625 C 1.414062 -1.570312 1.394531 -1.519531 1.34375 -1.46875 C 1.25 -1.382812 1.132812 -1.332031 1 -1.3125 C 0.851562 -1.289062 0.707031 -1.273438 0.5625 -1.265625 C 0.488281 -1.265625 0.4375 -1.25 0.40625 -1.21875 C 0.382812 -1.195312 0.367188 -1.148438 0.359375 -1.078125 C 0.335938 -0.878906 0.398438 -0.71875 0.546875 -0.59375 C 0.640625 -0.519531 0.75 -0.488281 0.875 -0.5 C 1.007812 -0.507812 1.148438 -0.546875 1.296875 -0.609375 C 1.441406 -0.671875 1.585938 -0.738281 1.734375 -0.8125 C 1.878906 -0.894531 2.003906 -0.972656 2.109375 -1.046875 C 2.160156 -1.078125 2.207031 -1.101562 2.25 -1.125 Z M 0.625 -1.53125 C 0.613281 -1.53125 0.601562 -1.523438 0.59375 -1.515625 C 0.582031 -1.503906 0.570312 -1.492188 0.5625 -1.484375 C 0.550781 -1.472656 0.546875 -1.46875 0.546875 -1.46875 C 0.554688 -1.457031 0.585938 -1.453125 0.640625 -1.453125 C 0.691406 -1.460938 0.75 -1.472656 0.8125 -1.484375 C 0.875 -1.503906 0.925781 -1.523438 0.96875 -1.546875 C 1.007812 -1.566406 1.023438 -1.59375 1.015625 -1.625 C 1.003906 -1.632812 0.992188 -1.640625 0.984375 -1.640625 C 0.972656 -1.648438 0.957031 -1.65625 0.9375 -1.65625 C 0.875 -1.65625 0.816406 -1.644531 0.765625 -1.625 C 0.722656 -1.601562 0.675781 -1.570312 0.625 -1.53125 Z M 0.625 -1.53125 "/></g></g><g transform="translate(91.885187, 70.28128)"><g><path d="M 1.484375 -1.109375 C 1.515625 -1.171875 1.535156 -1.195312 1.546875 -1.1875 C 1.554688 -1.1875 1.554688 -1.164062 1.546875 -1.125 C 1.546875 -1.082031 1.539062 -1.03125 1.53125 -0.96875 C 1.507812 -0.882812 1.472656 -0.785156 1.421875 -0.671875 C 1.367188 -0.566406 1.3125 -0.46875 1.25 -0.375 C 1.164062 -0.25 1.054688 -0.148438 0.921875 -0.078125 C 0.785156 -0.015625 0.660156 0 0.546875 -0.03125 C 0.441406 -0.0703125 0.382812 -0.175781 0.375 -0.34375 C 0.375 -0.488281 0.382812 -0.644531 0.40625 -0.8125 C 0.414062 -0.882812 0.425781 -0.953125 0.4375 -1.015625 C 0.4375 -1.046875 0.429688 -1.066406 0.421875 -1.078125 C 0.410156 -1.085938 0.394531 -1.09375 0.375 -1.09375 C 0.351562 -1.09375 0.335938 -1.09375 0.328125 -1.09375 C 0.242188 -1.082031 0.15625 -1.082031 0.0625 -1.09375 C -0.0390625 -1.125 -0.0976562 -1.175781 -0.109375 -1.25 C -0.128906 -1.320312 -0.128906 -1.421875 -0.109375 -1.546875 C -0.0976562 -1.628906 -0.0664062 -1.691406 -0.015625 -1.734375 C 0.0351562 -1.773438 0.0976562 -1.796875 0.171875 -1.796875 C 0.265625 -1.785156 0.3125 -1.742188 0.3125 -1.671875 C 0.3125 -1.609375 0.289062 -1.539062 0.25 -1.46875 C 0.21875 -1.394531 0.203125 -1.335938 0.203125 -1.296875 C 0.203125 -1.253906 0.238281 -1.238281 0.3125 -1.25 C 0.332031 -1.257812 0.351562 -1.265625 0.375 -1.265625 C 0.40625 -1.285156 0.4375 -1.296875 0.46875 -1.296875 C 0.5 -1.304688 0.546875 -1.3125 0.609375 -1.3125 C 0.671875 -1.300781 0.710938 -1.265625 0.734375 -1.203125 C 0.765625 -1.148438 0.773438 -1.078125 0.765625 -0.984375 C 0.765625 -0.898438 0.757812 -0.8125 0.75 -0.71875 C 0.726562 -0.601562 0.71875 -0.503906 0.71875 -0.421875 C 0.71875 -0.335938 0.742188 -0.285156 0.796875 -0.265625 C 0.859375 -0.253906 0.953125 -0.3125 1.078125 -0.4375 C 1.203125 -0.570312 1.335938 -0.796875 1.484375 -1.109375 Z M 1.484375 -1.109375 "/></g></g></g></svg>